<svg width="24" height="24" viewBox="0 0 24 24" fill="none" xmlns="http://www.w3.org/2000/svg">
<g clip-path="url(#clip0_59_1258)">
<path fill-rule="evenodd" clip-rule="evenodd" d="M5.88432 3H18.1153C19.1183 3 19.4821 3.1044 19.8487 3.3006C20.2154 3.4968 20.5032 3.78444 20.6992 4.1511C20.8952 4.51776 20.9998 4.88154 20.9998 5.8845V18.1155C20.9998 19.1185 20.8954 19.4822 20.6992 19.8489C20.503 20.2156 20.2154 20.5034 19.8487 20.6994C19.4821 20.8954 19.1183 21 18.1153 21H5.88432C4.88136 21 4.51758 20.8956 4.15092 20.6994C3.78426 20.5032 3.4968 20.2156 3.3006 19.8489C3.1044 19.4822 3 19.1186 3 18.1157V5.88468C3 4.88172 3.1044 4.51794 3.3006 4.15128C3.4968 3.78462 3.78444 3.4968 4.1511 3.3006C4.51776 3.1044 4.88136 3 5.88432 3Z" fill="#AB6993"/>
<path fill-rule="evenodd" clip-rule="evenodd" d="M13.4364 10.1941L14.4108 10.9857C14.4225 10.9954 14.4316 11.0078 14.4374 11.0219C14.4431 11.036 14.4452 11.0513 14.4436 11.0664C14.4419 11.0815 14.4366 11.096 14.4279 11.1085C14.4193 11.121 14.4077 11.1312 14.3942 11.1382L13.2721 11.7037C13.25 11.7144 13.2265 11.7219 13.2023 11.726L13.1778 11.7289C13.111 11.735 13.0445 11.715 12.9922 11.6731C12.9189 11.6144 12.8864 11.5216 12.9058 11.4326L12.9125 11.4085L13.2919 10.2385C13.2965 10.2245 13.3045 10.2117 13.3152 10.2014C13.3258 10.1911 13.3388 10.1835 13.353 10.1793C13.3672 10.1751 13.3822 10.1744 13.3967 10.1772C13.4112 10.1801 13.4249 10.1864 13.4364 10.1957V10.1941ZM16.2354 6.49991C16.363 6.3573 16.5386 6.26659 16.7287 6.24508C16.9189 6.22357 17.1103 6.27276 17.2665 6.38327L17.2992 6.40775L17.49 6.56615C17.566 6.62891 17.6287 6.7061 17.6746 6.79326C17.7205 6.88042 17.7487 6.97582 17.7575 7.07393C17.7737 7.25727 17.721 7.44005 17.6099 7.58675L17.5833 7.61987L14.9013 10.7818C14.8365 10.8583 14.7222 10.8682 14.6451 10.8043L13.5804 9.92225C13.5027 9.85781 13.4904 9.74261 13.5565 9.66485L16.2354 6.49991Z" fill="white"/>
<path d="M11.6422 14.2469H10.3181M11.6422 9.83875H10.3181" stroke="#EADAE4" stroke-width="1.523" stroke-linecap="round" stroke-linejoin="round"/>
<path d="M10.9618 10.1451L10.9625 14.027" stroke="#EADAE4" stroke-width="1.523" stroke-linecap="round" stroke-linejoin="round"/>
<path d="M7.31997 7.13729C7.22583 7.13729 7.14825 7.20857 7.13817 7.30019L7.13708 7.31999V16.68C7.13708 16.7741 7.20837 16.8517 7.29999 16.8618L7.31979 16.8629H16.6798C16.7739 16.8629 16.8515 16.7916 16.8616 16.7L16.8627 16.6802V10.6144C16.8627 10.5136 16.7808 10.4317 16.68 10.4317C16.5858 10.4317 16.5082 10.5029 16.4982 10.5946L16.4971 10.6144V16.4971H7.50249V7.50251H13.7485C13.8426 7.50251 13.9202 7.43123 13.9303 7.33961L13.9314 7.31981C13.9314 7.22567 13.8601 7.14809 13.7685 7.13801L13.7487 7.13693H7.31997V7.13729Z" fill="white"/>
<path d="M8.39999 7.31999C8.39999 6.72352 7.91646 6.23999 7.31999 6.23999C6.72352 6.23999 6.23999 6.72352 6.23999 7.31999C6.23999 7.91646 6.72352 8.39999 7.31999 8.39999C7.91646 8.39999 8.39999 7.91646 8.39999 7.31999Z" fill="#EADAE4"/>
<path d="M8.39999 16.68C8.39999 16.0835 7.91646 15.6 7.31999 15.6C6.72352 15.6 6.23999 16.0835 6.23999 16.68C6.23999 17.2764 6.72352 17.76 7.31999 17.76C7.91646 17.76 8.39999 17.2764 8.39999 16.68Z" fill="#EADAE4"/>
<path d="M17.76 16.68C17.76 16.0835 17.2764 15.6 16.68 15.6C16.0835 15.6 15.6 16.0835 15.6 16.68C15.6 17.2764 16.0835 17.76 16.68 17.76C17.2764 17.76 17.76 17.2764 17.76 16.68Z" fill="#EADAE4"/>
</g>
<defs>
<clipPath id="clip0_59_1258">
<rect width="18" height="18" fill="white" transform="translate(3 3)"/>
</clipPath>
</defs>
</svg>
