<svg width="24" height="24" viewBox="0 0 24 24" fill="none" xmlns="http://www.w3.org/2000/svg">
<g clip-path="url(#clip0_59_1274)">
<path fill-rule="evenodd" clip-rule="evenodd" d="M9.3634 15.3639H12.8014C13.6931 15.3639 14.0164 15.271 14.3422 15.0967C14.6642 14.9261 14.9274 14.6624 15.0975 14.34C15.2717 14.0153 15.3646 13.692 15.3646 12.8003V9.36337H19.1352C19.7832 9.36337 20.0183 9.43105 20.2559 9.55777C20.4935 9.68449 20.6793 9.87097 20.8056 10.1075C20.932 10.344 21 10.5791 21 11.2282V19.1352C21 19.7832 20.9327 20.0183 20.8056 20.2559C20.6813 20.4899 20.4899 20.6813 20.2559 20.8056C20.0183 20.9323 19.7836 21 19.1352 21H11.2278C10.5798 21 10.3448 20.9327 10.1072 20.8056C9.86956 20.6785 9.68524 20.4924 9.55744 20.2559C9.42964 20.0194 9.36304 19.7836 9.36304 19.1352L9.3634 15.3639Z" fill="#FBEFA8"/>
<path d="M18.8184 16.3693C18.8184 16.1976 18.6762 16.0587 18.5006 16.0587C18.3249 16.0587 18.1827 16.198 18.1827 16.3693V17.7532L16.3305 15.9363C16.2052 15.8139 16.0058 15.8139 15.8805 15.9363C15.8511 15.9647 15.8278 15.9988 15.8118 16.0365C15.7959 16.0741 15.7876 16.1146 15.7876 16.1555C15.7877 16.1966 15.7959 16.2373 15.8118 16.2752C15.8278 16.3131 15.8511 16.3474 15.8805 16.3762L17.7327 18.1942H16.3236C16.148 18.1942 16.0058 18.3335 16.0058 18.5063C16.0058 18.6791 16.148 18.8184 16.3236 18.8184H18.5016C18.5423 18.817 18.5834 18.8101 18.6226 18.7932C18.6608 18.778 18.6956 18.7553 18.7251 18.7266C18.7546 18.6979 18.7781 18.6636 18.7943 18.6258C18.8123 18.588 18.8181 18.5466 18.8181 18.5063L18.8195 16.3701L18.8184 16.3693Z" fill="#B7A001"/>
<path fill-rule="evenodd" clip-rule="evenodd" d="M4.86624 3H12.7819C13.4299 3 13.665 3.06768 13.9026 3.1944C14.1373 3.31824 14.3288 3.5112 14.4523 3.7452C14.579 3.98136 14.6467 4.21788 14.6467 4.86588V12.7801C14.6467 13.4299 14.5794 13.6646 14.4523 13.9022C14.3285 14.1355 14.1373 14.3285 13.9026 14.452C13.665 14.5787 13.4303 14.6464 12.7819 14.6464H4.86624C4.21824 14.6464 3.98172 14.579 3.74556 14.452C3.51084 14.3281 3.31932 14.1352 3.19584 13.9022C3.06768 13.665 3 13.4303 3 12.7805V4.86624C3 4.21824 3.06768 3.98172 3.1944 3.74556C3.31824 3.51084 3.5112 3.31932 3.7452 3.19476C3.9792 3.0702 4.21788 3 4.86624 3Z" fill="#D6BF2D"/>
<path fill-rule="evenodd" clip-rule="evenodd" d="M6.70085 7.66021V9.34789C6.70085 9.94549 6.36749 10.3055 5.72633 10.3055C4.94621 10.3055 4.80005 9.78673 4.80005 9.50521C4.80005 9.26473 4.91165 9.10993 5.10965 9.10993C5.34293 9.10993 5.40233 9.29137 5.40233 9.48793C5.40233 9.67369 5.48945 9.80833 5.71913 9.80833C5.93297 9.80833 6.05249 9.64993 6.05249 9.34033V7.66201C6.05249 7.46761 6.17921 7.33873 6.37721 7.33873C6.57521 7.33873 6.70193 7.46833 6.70193 7.66201L6.70085 7.66021ZM7.30277 9.96493V7.76821C7.30277 7.48021 7.45325 7.38841 7.68257 7.38841H8.67689C9.22265 7.38841 9.66257 7.65841 9.66257 8.29129C9.66257 8.80969 9.30257 9.19417 8.67257 9.19417H7.95257V9.96889C7.95257 10.1633 7.82477 10.2936 7.62785 10.2936C7.43093 10.2936 7.30313 10.1629 7.30313 9.96889L7.30277 9.96493ZM7.95257 7.88665V8.69377H8.55737C8.81909 8.69377 9.01313 8.53645 9.01313 8.29057C9.01313 8.00509 8.81153 7.88737 8.49113 7.88737L7.95257 7.88665ZM12.7352 9.00265V10.0769C12.7352 10.1964 12.6437 10.2936 12.5145 10.2936C12.3273 10.2936 12.2769 10.1784 12.2362 9.92533C12.0504 10.1586 11.7934 10.3091 11.3895 10.3091C10.384 10.3091 9.99881 9.61573 9.99881 8.81689C9.99881 7.85353 10.6007 7.32361 11.4838 7.32361C12.2052 7.32361 12.589 7.75561 12.589 8.00833C12.589 8.23513 12.4234 8.29381 12.2837 8.29381C11.9633 8.29381 12.0821 7.84669 11.4485 7.84669C11.0014 7.84669 10.6482 8.13937 10.6482 8.86045C10.6482 9.42205 10.9254 9.80977 11.4568 9.80977C11.8013 9.80977 12.1023 9.57649 12.1336 9.22765H11.712C11.5742 9.22765 11.4197 9.17725 11.4197 8.97925C11.4197 8.82085 11.5112 8.73085 11.6728 8.73085H12.4731C12.6628 8.73085 12.7388 8.82517 12.7388 9.00373L12.7352 9.00265Z" fill="white"/>
</g>
<defs>
<clipPath id="clip0_59_1274">
<rect width="18" height="18" fill="white" transform="translate(3 3)"/>
</clipPath>
</defs>
</svg>
