<svg width="24" height="24" viewBox="0 0 24 24" fill="none" xmlns="http://www.w3.org/2000/svg">
<g clip-path="url(#clip0_59_1142)">
<path fill-rule="evenodd" clip-rule="evenodd" d="M4.97572 3.13068H12.8057C13.4465 3.13068 13.6805 3.19692 13.9152 3.32328C14.1468 3.44649 14.3363 3.63602 14.4596 3.8676C14.5848 4.10232 14.6522 4.33452 14.6522 4.97712V12.8057C14.6522 13.4465 14.5848 13.6805 14.4596 13.9152C14.3363 14.1468 14.1468 14.3363 13.9152 14.4595C13.6805 14.5848 13.4472 14.6521 12.8057 14.6521H4.97572C4.33492 14.6521 4.10092 14.5848 3.8662 14.4595C3.63475 14.3362 3.44535 14.1467 3.32224 13.9152C3.19696 13.6805 3.12964 13.4472 3.12964 12.8057V4.97568C3.12964 4.33488 3.19732 4.10088 3.32224 3.86616C3.44629 3.63541 3.63545 3.44624 3.8662 3.3222C4.10092 3.19692 4.3342 3.1314 4.97572 3.1314V3.13068Z" fill="#EE6C4D"/>
<path fill-rule="evenodd" clip-rule="evenodd" d="M19.0427 20.8884H11.2137C10.5729 20.8884 10.3389 20.8221 10.1042 20.6958C9.87203 20.5734 9.68231 20.3837 9.55991 20.1515C9.43463 19.9167 9.36731 19.6845 9.36731 19.0419V11.2137C9.36731 10.5729 9.43355 10.3389 9.55991 10.1042C9.68231 9.87203 9.87203 9.68231 10.1042 9.55991C10.3389 9.43463 10.5722 9.36731 11.2137 9.36731H19.0423C19.6849 9.36731 19.9171 9.43499 20.1518 9.55991C20.384 9.68231 20.5737 9.87203 20.6961 10.1042C20.8229 10.3389 20.8888 10.5722 20.8888 11.2137V19.0423C20.8888 19.6849 20.8225 19.9171 20.6961 20.1518C20.5737 20.384 20.384 20.5737 20.1518 20.6961C19.9171 20.8229 19.6849 20.8888 19.0423 20.8888L19.0427 20.8884Z" fill="#EE6C4D"/>
<path d="M9.44613 6.94741C9.27189 6.94741 9.13113 7.08673 9.13113 7.25701V8.62501L6.54237 6.06829C6.41853 5.94733 6.22017 5.94733 6.09669 6.06829C6.03765 6.12589 6.00525 6.20509 6.00525 6.28609C6.00622 6.3673 6.03906 6.44487 6.09669 6.50209L8.68689 9.05737H7.29189C7.11765 9.05737 6.97689 9.19669 6.97689 9.36697C6.97689 9.53725 7.12089 9.67657 7.29189 9.67657H9.44613C9.48713 9.67646 9.52772 9.66839 9.56565 9.65281C9.6037 9.63757 9.63835 9.61492 9.66758 9.58619C9.69681 9.55745 9.72004 9.5232 9.73593 9.48541C9.75219 9.4482 9.76029 9.40793 9.75969 9.36733V7.25413C9.76113 7.08385 9.62037 6.94453 9.44649 6.94453L9.44613 6.94741ZM14.6366 17.0303C14.8094 17.0303 14.9498 16.8924 14.9498 16.7207V15.3538L17.54 17.909C17.5993 17.9673 17.679 18 17.7621 18C17.8452 18 17.925 17.9673 17.9843 17.909C18.0134 17.8807 18.0367 17.8469 18.0526 17.8095C18.0686 17.7721 18.0769 17.7319 18.0771 17.6912C18.0771 17.6084 18.0433 17.5292 17.9843 17.4734L15.3923 14.9167H16.7872C16.9615 14.9167 17.1023 14.7788 17.1023 14.6071C17.1023 14.4354 16.9583 14.2993 16.7872 14.2993H14.633C14.5916 14.2996 14.5505 14.3077 14.512 14.3231C14.4401 14.354 14.3742 14.4131 14.3418 14.4887C14.3264 14.5262 14.3183 14.5663 14.318 14.6068V16.72C14.318 16.8917 14.462 17.0296 14.633 17.0296L14.6366 17.0303ZM11.0006 13.3943C10.8728 13.521 10.6658 13.521 10.538 13.3943C10.4102 13.2676 10.4102 13.058 10.538 12.9263C10.5994 12.8651 10.6826 12.8307 10.7693 12.8307C10.856 12.8307 10.9392 12.8651 11.0006 12.9263C11.1284 13.053 11.1284 13.2625 11.0006 13.3943ZM12.2152 12.1858C12.1538 12.247 12.0707 12.2814 11.9839 12.2814C11.8972 12.2814 11.8141 12.247 11.7526 12.1858C11.6914 12.1244 11.657 12.0412 11.657 11.9545C11.657 11.8678 11.6914 11.7846 11.7526 11.7232C11.8794 11.5964 12.0874 11.5964 12.2152 11.7232C12.2765 11.7846 12.3109 11.8678 12.3109 11.9545C12.3109 12.0412 12.2765 12.1244 12.2152 12.1858ZM13.4248 10.9747C13.3634 11.036 13.2803 11.0703 13.1935 11.0703C13.1068 11.0703 13.0237 11.036 12.9622 10.9747C12.901 10.9133 12.8666 10.8301 12.8666 10.7434C12.8666 10.6567 12.901 10.5735 12.9622 10.5121C13.0237 10.4509 13.1068 10.4165 13.1935 10.4165C13.2803 10.4165 13.3634 10.4509 13.4248 10.5121C13.4861 10.5735 13.5205 10.6567 13.5205 10.7434C13.5205 10.8301 13.4861 10.9133 13.4248 10.9747Z" fill="white"/>
</g>
<defs>
<clipPath id="clip0_59_1142">
<rect width="18" height="18" fill="white" transform="translate(3 3)"/>
</clipPath>
</defs>
</svg>
