<svg width="24" height="24" viewBox="0 0 24 24" fill="none" xmlns="http://www.w3.org/2000/svg">
<g clip-path="url(#clip0_59_1370)">
<path d="M14.349 13.08H19.731C20.1723 13.08 20.3322 13.1259 20.4936 13.2123C20.6551 13.2987 20.7816 13.4252 20.868 13.5867C20.9544 13.7481 21 13.908 21 14.349V19.731C21 20.1723 20.9541 20.3322 20.8677 20.4936C20.7813 20.6551 20.6547 20.7816 20.4933 20.868C20.3318 20.9544 20.172 21 19.731 21H14.349C13.9076 21 13.7478 20.9541 13.5863 20.8677C13.4248 20.7813 13.2983 20.6547 13.2119 20.4933C13.1255 20.3318 13.08 20.172 13.08 19.731V14.349C13.08 13.9076 13.1259 13.7478 13.2123 13.5863C13.2987 13.4249 13.4252 13.2983 13.5867 13.2119C13.7481 13.1255 13.908 13.08 14.349 13.08Z" fill="#F5C5B3"/>
<path d="M4.269 3H9.651C10.0924 3 10.2522 3.0459 10.4137 3.1323C10.5751 3.2187 10.7017 3.34524 10.7881 3.5067C10.8745 3.66816 10.92 3.828 10.92 4.269V19.731C10.92 20.1724 10.8741 20.3322 10.7877 20.4937C10.7013 20.6551 10.5748 20.7817 10.4133 20.8681C10.2518 20.9545 10.092 21 9.651 21H4.269C3.82764 21 3.6678 20.9541 3.50634 20.8677C3.34488 20.7813 3.21834 20.6548 3.13194 20.4933C3.04554 20.3318 3 20.172 3 19.731V4.269C3 3.828 3.0459 3.666 3.1323 3.50652C3.2187 3.34704 3.34524 3.21852 3.5067 3.13212C3.66816 3.04572 3.828 3 4.269 3Z" fill="#EE6C4D"/>
<path d="M14.349 3H19.731C20.1723 3 20.3322 3.0459 20.4936 3.1323C20.6551 3.2187 20.7816 3.34524 20.868 3.5067C20.9544 3.66816 21 3.828 21 4.269V9.651C21 10.0924 20.9541 10.2522 20.8677 10.4137C20.7813 10.5751 20.6547 10.7017 20.4933 10.7881C20.3318 10.8745 20.172 10.92 19.731 10.92H14.349C13.9076 10.92 13.7478 10.8741 13.5863 10.7877C13.4248 10.7013 13.2983 10.5748 13.2119 10.4133C13.1255 10.2518 13.08 10.092 13.08 9.651V4.269C13.08 3.82764 13.1259 3.6678 13.2123 3.50634C13.2987 3.34488 13.4252 3.21834 13.5867 3.13194C13.7481 3.04554 13.908 3 14.349 3Z" fill="#F5C5B3"/>
<path d="M15.6709 7.99374L16.6117 5.55726C16.6738 5.39652 16.7892 5.34018 16.9667 5.34018H17.1395C17.3037 5.34018 17.4502 5.37924 17.5301 5.60082L18.4085 7.99392C18.4351 8.0634 18.4794 8.1894 18.4794 8.26752C18.4794 8.44122 18.3241 8.58018 18.1378 8.58018C17.9779 8.58018 17.8624 8.52366 17.8095 8.3847L17.6232 7.8636H16.4517L16.2609 8.3847C16.2123 8.52366 16.1101 8.58018 15.9369 8.58018C15.7389 8.58018 15.5996 8.4585 15.5996 8.26752C15.5996 8.1894 15.6441 8.0634 15.6705 7.99392L15.6709 7.99374ZM17.4637 7.36824L17.0509 6.1131H17.0419L16.6099 7.36824H17.4619H17.4637ZM15.78 18.0719V15.8281C15.78 15.5177 15.9391 15.42 16.1819 15.42H17.0945C17.5985 15.42 18.1954 15.5348 18.1954 16.2106C18.1975 16.345 18.158 16.4767 18.0823 16.5878C18.0066 16.6989 17.8984 16.7838 17.7726 16.831V16.8395C18.0906 16.9244 18.3 17.1539 18.3 17.5748C18.3 18.2165 17.7852 18.4802 17.1906 18.4802H16.1817C15.9391 18.48 15.78 18.3823 15.78 18.0719ZM16.4665 17.1179V17.9423H17.0425C17.3103 17.9423 17.6118 17.8871 17.6118 17.5343C17.6118 17.1646 17.2938 17.1178 16.9588 17.1178H16.4649L16.4665 17.1179ZM16.4665 15.9299V16.678H17.0317C17.3557 16.678 17.5087 16.5463 17.5087 16.304C17.5087 16.0106 17.2657 15.9299 17.0106 15.9299H16.4665Z" fill="#B63C23"/>
<mask id="mask0_59_1370" style="mask-type:alpha" maskUnits="userSpaceOnUse" x="4" y="7" width="6" height="3">
<path d="M6.96005 8.07095L8.59337 9.71723C8.71397 9.83873 8.90927 9.83873 9.02969 9.71723C9.08751 9.65862 9.11993 9.5796 9.11993 9.49727C9.11993 9.41494 9.08751 9.33592 9.02969 9.27731L7.17821 7.41107C7.05761 7.28957 6.86231 7.28957 6.74189 7.41107L4.89041 9.27731C4.83259 9.33592 4.80017 9.41494 4.80017 9.49727C4.80017 9.5796 4.83259 9.65862 4.89041 9.71723C5.01101 9.83873 5.20631 9.83873 5.32673 9.71723L6.96005 8.07095Z" fill="white"/>
</mask>
<g mask="url(#mask0_59_1370)">
<path d="M6.96005 8.07095L8.59337 9.71723C8.71397 9.83873 8.90927 9.83873 9.02969 9.71723C9.08751 9.65862 9.11993 9.5796 9.11993 9.49727C9.11993 9.41494 9.08751 9.33592 9.02969 9.27731L7.17821 7.41107C7.05761 7.28957 6.86231 7.28957 6.74189 7.41107L4.89041 9.27731C4.83259 9.33592 4.80017 9.41494 4.80017 9.49727C4.80017 9.5796 4.83259 9.65862 4.89041 9.71723C5.01101 9.83873 5.20631 9.83873 5.32673 9.71723L6.96005 8.07095Z" fill="white"/>
</g>
<mask id="mask1_59_1370" style="mask-type:alpha" maskUnits="userSpaceOnUse" x="4" y="14" width="6" height="3">
<path d="M6.96005 15.9002L8.59337 14.2539C8.71397 14.1324 8.90927 14.1324 9.02969 14.2539C9.08751 14.3125 9.11993 14.3916 9.11993 14.4739C9.11993 14.5562 9.08751 14.6352 9.02969 14.6939L7.17821 16.5601C7.05761 16.6816 6.86231 16.6816 6.74189 16.5601L4.89041 14.6939C4.83259 14.6352 4.80017 14.5562 4.80017 14.4739C4.80017 14.3916 4.83259 14.3125 4.89041 14.2539C5.01101 14.1324 5.20631 14.1324 5.32673 14.2539L6.96005 15.9002Z" fill="white"/>
</mask>
<g mask="url(#mask1_59_1370)">
<path d="M6.96005 15.9002L8.59337 14.2539C8.71397 14.1324 8.90927 14.1324 9.02969 14.2539C9.08751 14.3125 9.11993 14.3916 9.11993 14.4739C9.11993 14.5562 9.08751 14.6352 9.02969 14.6939L7.17821 16.5601C7.05761 16.6816 6.86231 16.6816 6.74189 16.5601L4.89041 14.6939C4.83259 14.6352 4.80017 14.5562 4.80017 14.4739C4.80017 14.3916 4.83259 14.3125 4.89041 14.2539C5.01101 14.1324 5.20631 14.1324 5.32673 14.2539L6.96005 15.9002Z" fill="white"/>
</g>
</g>
<defs>
<clipPath id="clip0_59_1370">
<rect width="18" height="18" fill="white" transform="translate(3 3)"/>
</clipPath>
</defs>
</svg>
