<svg width="24" height="24" viewBox="0 0 24 24" fill="none" xmlns="http://www.w3.org/2000/svg">
<g clip-path="url(#clip0_59_1365)">
<path fill-rule="evenodd" clip-rule="evenodd" d="M14.3483 13.08H19.7314C20.1716 13.08 20.3318 13.1268 20.4935 13.2121C20.6519 13.2964 20.7833 13.4274 20.8679 13.5865C20.955 13.7485 21 13.9087 21 14.3486V19.7317C21 20.172 20.9532 20.3322 20.8679 20.4938C20.7836 20.6522 20.6526 20.7836 20.4935 20.8682C20.3315 20.9554 20.1713 21.0004 19.7314 21.0004H14.3483C13.908 21.0004 13.7478 20.9536 13.5862 20.8682C13.4278 20.784 13.2964 20.653 13.2118 20.4938C13.1246 20.3318 13.0796 20.1716 13.0796 19.7317V14.3483C13.0796 13.908 13.1264 13.7478 13.2118 13.5862C13.296 13.4278 13.427 13.2964 13.5862 13.2118C13.7482 13.1246 13.9084 13.0796 14.3483 13.0796V13.08ZM14.3483 3H19.7314C20.1716 3 20.3318 3.0468 20.4935 3.13212C20.6519 3.21636 20.7833 3.3474 20.8679 3.50652C20.955 3.66852 21 3.82872 21 4.26864V9.65172C21 10.092 20.9532 10.2522 20.8679 10.4138C20.7836 10.5722 20.6526 10.7036 20.4935 10.7882C20.3315 10.8754 20.1713 10.9204 19.7314 10.9204H14.3483C13.908 10.9204 13.7478 10.8736 13.5862 10.7882C13.4278 10.704 13.2964 10.573 13.2118 10.4138C13.1246 10.2518 13.0796 10.0916 13.0796 9.65172V4.26828C13.0796 3.828 13.1264 3.6678 13.2118 3.50616C13.296 3.34776 13.427 3.21636 13.5862 3.13176C13.7478 3.045 13.908 3 14.3483 3ZM4.26828 13.08H9.65136C10.0916 13.08 10.2518 13.1268 10.4135 13.2121C10.5719 13.2964 10.7033 13.4274 10.7879 13.5865C10.875 13.7485 10.92 13.9087 10.92 14.3486V19.7317C10.92 20.172 10.8732 20.3322 10.7879 20.4938C10.7036 20.6522 10.5726 20.7836 10.4135 20.8682C10.2515 20.9554 10.0913 21.0004 9.65136 21.0004H4.26828C3.828 21.0004 3.6678 20.9536 3.50616 20.8682C3.34776 20.784 3.21636 20.653 3.13176 20.4938C3.045 20.3322 3 20.172 3 19.7317V14.3483C3 13.908 3.0468 13.7478 3.13212 13.5862C3.21636 13.4278 3.3474 13.2964 3.50652 13.2118C3.66852 13.1246 3.82872 13.0796 4.26864 13.0796L4.26828 13.08ZM4.26828 3H9.65136C10.0916 3 10.2518 3.0468 10.4135 3.13212C10.5719 3.21636 10.7033 3.3474 10.7879 3.50652C10.875 3.66852 10.92 3.82872 10.92 4.26864V9.65172C10.92 10.092 10.8732 10.2522 10.7879 10.4138C10.7036 10.5722 10.5726 10.7036 10.4135 10.7882C10.2515 10.8754 10.0913 10.9204 9.65136 10.9204H4.26828C3.828 10.9204 3.6678 10.8736 3.50616 10.7882C3.34776 10.704 3.21636 10.573 3.13176 10.4138C3.045 10.2522 3 10.092 3 9.65172V4.26828C3 3.828 3.0468 3.66672 3.13212 3.50616C3.21757 3.34761 3.34761 3.21757 3.50616 3.13212C3.6678 3.0468 3.828 3 4.26828 3Z" fill="#AB6993"/>
<path fill-rule="evenodd" clip-rule="evenodd" d="M6.72243 8.13721V6.35881H6.11907C5.96427 6.35881 5.88003 6.30265 5.88003 6.11149C5.88003 5.93725 5.97435 5.89081 6.21771 5.84437L6.39051 5.80657C6.90963 5.69281 6.76455 5.16001 7.16379 5.16001C7.31427 5.16001 7.43523 5.22625 7.43523 5.47789V8.13721C7.43523 8.38057 7.34235 8.54761 7.07955 8.54761C6.81675 8.54761 6.72387 8.38021 6.72387 8.13721H6.72243ZM16.554 7.89673H17.9587C18.1359 7.89673 18.2665 7.98097 18.2665 8.19049C18.2665 8.40001 18.1359 8.48569 17.9209 8.48569H16.1652C15.8938 8.48569 15.7815 8.30281 15.7815 8.14009C15.7815 7.80673 16.0767 7.43701 16.6617 7.06837C17.3133 6.65617 17.5365 6.57157 17.5365 6.19213C17.5365 5.88685 17.3032 5.71945 17.0458 5.71945C16.7463 5.71945 16.5454 5.84185 16.4424 6.21625C16.3945 6.38905 16.3344 6.47797 16.1472 6.47797C15.9546 6.47797 15.8052 6.39877 15.8052 6.16477C15.8052 5.59381 16.3668 5.15677 17.0544 5.15677C17.8039 5.15677 18.2482 5.64889 18.2482 6.07945C18.2482 6.70225 17.9627 6.94273 17.4663 7.22569C16.9371 7.52521 16.6156 7.71781 16.5537 7.89529L16.554 7.89673ZM5.70003 17.999C5.69848 17.9552 5.70604 17.9116 5.72223 17.8709C5.73842 17.8301 5.76289 17.7932 5.79409 17.7624C5.82529 17.7316 5.86253 17.7076 5.90348 17.692C5.94442 17.6763 5.98816 17.6693 6.03195 17.6714C6.44811 17.6714 6.22455 18.2467 6.87003 18.2467C7.22175 18.2467 7.41003 18.0314 7.41003 17.742C7.41003 17.517 7.31175 17.3525 6.98811 17.3201C6.85743 17.3057 6.60003 17.2834 6.60003 17.067C6.60003 16.8236 6.74043 16.7732 7.00791 16.7592C7.24119 16.7448 7.36359 16.6087 7.36359 16.3934C7.36359 16.1137 7.14291 15.9812 6.89559 15.9812C6.32895 15.9812 6.45999 16.5155 6.09135 16.5155C5.93115 16.5155 5.77815 16.4435 5.77815 16.2347C5.77815 15.6637 6.45603 15.4204 6.91035 15.4204C7.72035 15.4204 8.01987 15.8747 8.01987 16.3286C8.01987 16.6282 7.88307 16.8434 7.62315 16.9838C7.97487 17.081 8.12355 17.3618 8.12355 17.7136C8.12355 18.4534 7.55259 18.808 6.86067 18.808C5.98047 18.808 5.70507 18.2608 5.70507 17.9994L5.70003 17.999ZM17.13 17.4648V16.2527H17.1217L16.2174 17.4648H17.13ZM17.13 18.4814V17.999H15.9557C15.7123 17.999 15.6 17.8262 15.6 17.6758C15.6 17.5548 15.6281 17.4788 15.6886 17.4L17.13 15.5507C17.202 15.4578 17.3028 15.42 17.4367 15.42C17.6898 15.42 17.787 15.5568 17.787 15.7577V17.4677H18.0217C18.1801 17.4677 18.2835 17.5793 18.2835 17.7334C18.2835 17.8874 18.1809 18.0005 18.0217 18.0005H17.787V18.4829C17.787 18.6798 17.7042 18.8069 17.463 18.8069C17.2218 18.8069 17.1369 18.6762 17.1369 18.4829L17.13 18.4814Z" fill="white"/>
</g>
<defs>
<clipPath id="clip0_59_1365">
<rect width="18" height="18" fill="white" transform="translate(3 3)"/>
</clipPath>
</defs>
</svg>
