<svg width="24" height="24" viewBox="0 0 24 24" fill="none" xmlns="http://www.w3.org/2000/svg">
<g clip-path="url(#clip0_59_1369)">
<path d="M5.88432 3H18.1153C19.1183 3 19.4821 3.1044 19.8487 3.3006C20.2154 3.4968 20.5032 3.78444 20.6992 4.1511C20.8952 4.51776 20.9998 4.88154 20.9998 5.8845V18.1155C20.9998 19.1185 20.8954 19.4822 20.6992 19.8489C20.503 20.2156 20.2154 20.5034 19.8487 20.6994C19.4821 20.8954 19.1183 21 18.1153 21H5.88432C4.88136 21 4.51758 20.8956 4.15092 20.6994C3.78426 20.5032 3.4968 20.2156 3.3006 19.8489C3.1044 19.4822 3 19.1186 3 18.1157V5.88468C3 4.88172 3.1044 4.51794 3.3006 4.15128C3.4968 3.78462 3.78444 3.4968 4.1511 3.3006C4.51776 3.1044 4.88136 3 5.88432 3Z" fill="#4A7AAB"/>
<path d="M11.9073 6.9087C11.9649 6.88312 12.0271 6.8699 12.0901 6.8699C12.1531 6.8699 12.2154 6.88312 12.2729 6.9087L16.1429 8.62878C16.2225 8.66413 16.2901 8.7218 16.3375 8.79481C16.385 8.86781 16.4102 8.95301 16.4102 9.04008V11.6202C16.4102 14.2203 14.6102 16.6278 12.1969 17.2173C12.1268 17.2344 12.0536 17.2344 11.9835 17.2173C9.57002 16.6274 7.77002 14.2201 7.77002 11.6202V9.04008C7.77001 8.95301 7.79526 8.86781 7.8427 8.79481C7.89015 8.7218 7.95775 8.66413 8.03732 8.62878L11.9073 6.9087ZM8.67002 9.3324V11.6202C8.67002 13.7748 10.1397 15.7811 12.09 16.3153C14.0403 15.7811 15.51 13.775 15.51 11.6202V9.3324L12.09 7.81248L8.67002 9.3324Z" fill="white"/>
<path d="M12.7003 13.5287H11.3119L11.524 11.8079C11.3195 11.6643 11.1866 11.4321 11.1866 11.1697C11.1866 10.7337 11.5535 10.3802 12.0062 10.3802C12.4589 10.3802 12.8257 10.7337 12.8257 11.1697C12.8257 11.4319 12.6929 11.6643 12.4884 11.8079L12.7001 13.5287H12.7003Z" fill="white"/>
</g>
<defs>
<clipPath id="clip0_59_1369">
<rect width="18" height="18" fill="white" transform="translate(3 3)"/>
</clipPath>
</defs>
</svg>
