<svg width="24" height="24" viewBox="0 0 24 24" fill="none" xmlns="http://www.w3.org/2000/svg">
<g clip-path="url(#clip0_59_1266)">
<path fill-rule="evenodd" clip-rule="evenodd" d="M14.6366 8.63616H11.1986C10.3069 8.63616 9.98364 8.72904 9.65784 8.90328C9.33606 9.0743 9.07296 9.33789 8.90256 9.66C8.72832 9.98472 8.63544 10.308 8.63544 11.1997V14.6377H4.8648C4.2168 14.6377 3.98172 14.5704 3.74412 14.4433C3.51016 14.319 3.31872 14.1276 3.1944 13.8936C3.06768 13.6553 3 13.4202 3 12.7722V4.8648C3 4.2168 3.06768 3.98172 3.1944 3.74412C3.31857 3.51008 3.50988 3.31851 3.74376 3.19404C3.98172 3.06768 4.2168 3 4.8648 3H12.7722C13.4202 3 13.6553 3.06768 13.8929 3.1944C14.1268 3.31872 14.3183 3.51016 14.4426 3.74412C14.5693 3.98172 14.637 4.2168 14.637 4.8648L14.6366 8.63616Z" fill="#FBEFA8"/>
<path d="M8.21177 5.70719C8.21177 5.53547 8.06957 5.39651 7.89389 5.39651C7.71821 5.39651 7.57601 5.53583 7.57601 5.70719V7.09103L5.72381 5.27375C5.66392 5.21504 5.5834 5.18216 5.49953 5.18216C5.41567 5.18216 5.33515 5.21504 5.27525 5.27375C5.21477 5.33135 5.18237 5.41055 5.18237 5.49335C5.18237 5.57615 5.21837 5.65643 5.27525 5.71403L7.12745 7.53203H5.71805C5.54237 7.53203 5.40017 7.67135 5.40017 7.84415C5.40017 8.01695 5.54237 8.15483 5.71805 8.15483H7.89497C7.93697 8.15539 7.97864 8.1473 8.01737 8.13107C8.09477 8.10011 8.15669 8.03963 8.18909 7.96187C8.20709 7.92515 8.21285 7.88447 8.21285 7.84379L8.21429 5.70755L8.21177 5.70719Z" fill="#B7A001"/>
<path fill-rule="evenodd" clip-rule="evenodd" d="M11.2278 9.36337H19.1352C19.7832 9.36337 20.0183 9.43105 20.2559 9.55885C20.4892 9.68269 20.6822 9.87385 20.8056 10.1086C20.9324 10.3447 21 10.5802 21 11.2282V19.1352C21 19.7832 20.9327 20.0183 20.8056 20.2559C20.6813 20.4898 20.4899 20.6813 20.2559 20.8056C20.0183 20.9323 19.7836 21 19.1352 21H11.2278C10.5798 21 10.3448 20.9327 10.1072 20.8056C9.87388 20.6818 9.68236 20.4888 9.55744 20.2559C9.43072 20.0183 9.36304 19.7836 9.36304 19.1352V11.2278C9.36304 10.5798 9.43072 10.3447 9.55744 10.1071C9.68272 9.87385 9.87424 9.68233 10.1072 9.55741C10.3448 9.43069 10.5798 9.36301 11.2278 9.36301V9.36337Z" fill="#D6BF2D"/>
<path fill-rule="evenodd" clip-rule="evenodd" d="M17.94 12.36C18.3367 12.36 18.66 12.6833 18.66 13.08C18.66 13.4767 18.3367 13.8 17.94 13.8C17.5433 13.8 17.22 13.4767 17.22 13.08C17.22 12.6833 17.5433 12.36 17.94 12.36ZM14.016 17.04H11.7321C11.6961 17.04 11.6702 17.0231 11.6547 16.995C11.6393 16.9669 11.6393 16.9345 11.6562 16.9079L14.0228 12.9407C14.0315 12.9284 14.0429 12.9183 14.0563 12.9114C14.0696 12.9044 14.0845 12.9008 14.0995 12.9008C14.1146 12.9008 14.1294 12.9044 14.1427 12.9114C14.1561 12.9183 14.1676 12.9284 14.1762 12.9407L15.5557 15.2526L16.4809 14.3076C16.4978 14.2896 16.5205 14.281 16.5443 14.281H16.5471C16.5723 14.281 16.5965 14.2918 16.6119 14.3119L18.8079 16.8787C18.8331 16.8942 18.8475 16.9219 18.8475 16.9518C18.8475 16.9997 18.8069 17.0389 18.759 17.0389H14.016V17.0375V17.04Z" fill="white"/>
</g>
<defs>
<clipPath id="clip0_59_1266">
<rect width="18" height="18" fill="white" transform="translate(3 3)"/>
</clipPath>
</defs>
</svg>
