<svg width="24" height="24" viewBox="0 0 24 24" fill="none" xmlns="http://www.w3.org/2000/svg">
<g clip-path="url(#clip0_59_1371)">
<path fill-rule="evenodd" clip-rule="evenodd" d="M5.88432 3H18.116C19.1186 3 19.483 3.1044 19.8498 3.30096C20.2112 3.49176 20.5079 3.78876 20.6994 4.15164C20.8963 4.5174 21.0004 4.88136 21.0004 5.88432V18.116C21.0004 19.1186 20.896 19.483 20.6994 19.8498C20.5086 20.2112 20.2116 20.5079 19.8498 20.6994C19.4826 20.8963 19.119 21.0004 18.116 21.0004H5.88432C4.88172 21.0004 4.5174 20.896 4.15056 20.6994C3.78912 20.5086 3.49248 20.2116 3.30096 19.8498C3.1044 19.4826 3 19.1183 3 18.1157V5.88432C3 4.88172 3.1044 4.5174 3.30096 4.15056C3.49212 3.7884 3.7884 3.49212 4.152 3.30096C4.5174 3.1044 4.88172 3 5.88432 3Z" fill="#8FBC5D"/>
<path fill-rule="evenodd" clip-rule="evenodd" d="M10.4938 12.8507C10.5359 12.886 10.56 12.9378 10.5586 12.9911C10.5586 13.0343 10.5442 13.0753 10.5179 13.1077L8.15525 15.9539C8.12399 15.9908 8.07941 16.0139 8.03121 16.0182C7.98301 16.0224 7.93508 16.0075 7.89785 15.9766C7.87762 15.9591 7.86138 15.9375 7.8502 15.9132C7.83902 15.8889 7.83317 15.8625 7.83305 15.8358C7.83305 15.7926 7.84853 15.7516 7.87517 15.7177L10.2368 12.873C10.2677 12.8363 10.3113 12.8125 10.3592 12.8082C10.407 12.8039 10.4564 12.819 10.4924 12.8503L10.4938 12.8507ZM11.2606 13.4962C11.2977 13.5273 11.321 13.5718 11.3255 13.62C11.3299 13.6682 11.3151 13.7162 11.2844 13.7536L8.92205 16.5997C8.89109 16.6364 8.84753 16.6602 8.79821 16.6645C8.77449 16.6666 8.75061 16.6639 8.72793 16.6567C8.70525 16.6495 8.68423 16.6378 8.66609 16.6224C8.64586 16.6049 8.62962 16.5833 8.61844 16.559C8.60726 16.5348 8.60141 16.5084 8.60129 16.4816C8.60129 16.4384 8.61569 16.3974 8.64341 16.3636L11.005 13.5188C11.036 13.4821 11.0806 13.4584 11.1288 13.454C11.1771 13.4497 11.2246 13.4648 11.262 13.4962H11.2606ZM7.36685 15.4078C7.02233 15.8239 7.07705 16.4482 7.49069 16.7974L7.93637 17.1728C8.03529 17.2554 8.14952 17.3176 8.27251 17.3559C8.39551 17.3942 8.52486 17.4078 8.65314 17.3961C8.78143 17.3843 8.90613 17.3473 9.0201 17.2873C9.13408 17.2272 9.23508 17.1453 9.31733 17.0461L11.8204 14.034L10.1957 12L7.36685 15.4078ZM14.9736 8.73805C15.1058 8.58103 15.2672 8.45118 15.4488 8.35573L15.5615 8.29813C15.7008 8.22505 15.8218 8.12785 15.9201 8.01013L16.2945 7.56013C16.3438 7.50109 16.3226 7.40173 16.2477 7.33945L15.6393 6.82897C15.5637 6.76561 15.4636 6.76273 15.4143 6.82177L15.0399 7.27177C14.9412 7.39123 14.8667 7.52879 14.8206 7.67677L14.7839 7.79773C14.7238 7.99415 14.6253 8.1767 14.4941 8.33485L12.54 10.6752L13.0044 11.1L14.9736 8.73805ZM16.0832 16.5274C15.9554 16.6454 15.7865 16.7088 15.6134 16.7016C15.5277 16.6985 15.4434 16.6786 15.3655 16.6428C15.2875 16.6071 15.2174 16.5564 15.159 16.4935C14.9128 16.2278 14.9286 15.8131 15.1929 15.5669C15.2555 15.5083 15.3292 15.4627 15.4096 15.4328C15.49 15.4029 15.5755 15.3892 15.6612 15.3926C15.7472 15.3955 15.8317 15.4154 15.9099 15.4511C15.9881 15.4868 16.0585 15.5377 16.117 15.6007C16.3618 15.8664 16.3463 16.2811 16.0832 16.5274ZM11.676 10.5586C11.3499 10.2533 11.1864 9.80257 11.2599 9.36481C11.3643 8.72509 11.1843 8.04433 10.7102 7.53097C10.2447 7.02769 9.59417 6.79837 8.96345 6.84481C8.85113 6.85309 8.79785 6.98809 8.87489 7.07161L9.86201 8.13901C9.95561 8.24083 10.0053 8.37544 10.0003 8.51366C9.99532 8.65187 9.93606 8.78255 9.83537 8.87737L8.93825 9.71401C8.83745 9.80833 8.70209 9.85873 8.56385 9.85333C8.4954 9.85101 8.42808 9.83515 8.3658 9.80666C8.30351 9.77817 8.24749 9.73763 8.20097 9.68737L7.21673 8.62429C7.18145 8.58649 7.12673 8.57101 7.07741 8.58757C7.05277 8.59483 7.03077 8.60906 7.01403 8.62854C6.9973 8.64802 6.98655 8.67192 6.98309 8.69737C6.89309 9.33565 7.08137 10.0106 7.55909 10.51C7.78123 10.7438 8.05285 10.9251 8.35407 11.0405C8.6553 11.1558 8.97851 11.2024 9.30005 11.1767C9.74429 11.14 10.1777 11.3329 10.4574 11.68L14.7 16.9781C15.1968 17.5123 16.032 17.5418 16.5648 17.0465C17.0976 16.5511 17.1275 15.7073 16.6332 15.1745L11.676 10.5586Z" fill="white"/>
</g>
<defs>
<clipPath id="clip0_59_1371">
<rect width="18" height="18" fill="white" transform="translate(3 3)"/>
</clipPath>
</defs>
</svg>
