<svg width="24" height="24" viewBox="0 0 24 24" fill="none" xmlns="http://www.w3.org/2000/svg">
<g clip-path="url(#clip0_59_1372)">
<path d="M5.88 3H18.12C19.11 3 19.488 3.108 19.848 3.306C20.208 3.504 20.496 3.792 20.694 4.152C20.892 4.512 21 4.89 21 5.88V18.12C21 19.11 20.892 19.488 20.694 19.848C20.496 20.208 20.208 20.496 19.848 20.694C19.488 20.892 19.11 21 18.12 21H5.88C4.89 21 4.512 20.892 4.152 20.694C3.792 20.496 3.504 20.208 3.306 19.848C3.108 19.488 3 19.11 3 18.12V5.88C3 4.89 3.108 4.512 3.306 4.152C3.504 3.792 3.792 3.504 4.152 3.306C4.512 3.108 4.89 3 5.88 3Z" fill="#AB6993"/>
<path d="M5.88 3H18.12C19.11 3 19.488 3.108 19.848 3.306C20.208 3.504 20.496 3.792 20.694 4.152C20.892 4.512 21 4.89 21 5.88V18.12C21 19.11 20.892 19.488 20.694 19.848C20.496 20.208 20.208 20.496 19.848 20.694C19.488 20.892 19.11 21 18.12 21H5.88C4.89 21 4.512 20.892 4.152 20.694C3.792 20.496 3.504 20.208 3.306 19.848C3.108 19.488 3 19.11 3 18.12V5.88C3 4.89 3.108 4.512 3.306 4.152C3.504 3.792 3.792 3.504 4.152 3.306C4.512 3.108 4.89 3 5.88 3Z" fill="#4A7AAB"/>
<path d="M9.22272 11.2244L9.07652 16.4816C9.08969 16.5308 9.11187 16.5644 9.15205 16.5668C9.19223 16.5692 9.21681 16.5626 9.23481 16.5314L10.9178 13.6164C10.5977 13.3069 10.5217 12.8265 10.7467 12.4368C11.0077 11.9847 11.5978 11.8266 12.0499 12.0876C12.5175 12.3576 12.6757 12.9477 12.4147 13.3998C12.1897 13.7895 11.7201 13.9549 11.2919 13.8324L9.60894 16.7474C9.59094 16.7786 9.60411 16.8278 9.65088 16.8548C9.66647 16.8638 9.70664 16.8662 9.73123 16.8596L14.211 14.1044C14.3454 14.0157 14.4174 13.891 14.4426 13.7392L14.7585 10.4921C14.7861 10.3003 14.6998 10.1257 14.5284 10.0267L12.5954 8.91073C12.4239 8.81173 12.2296 8.82427 12.0617 8.93515L9.42313 10.8412C9.30437 10.939 9.23237 11.0637 9.22272 11.2244Z" fill="white"/>
<path d="M15.176 9.98496L12.3077 8.32896C12.1674 8.24796 12.1327 8.02007 12.2407 7.83301L12.9067 6.67946C13.0147 6.4924 13.2294 6.40852 13.3697 6.48952L16.238 8.14552C16.3939 8.23552 16.4286 8.4634 16.3206 8.65046L15.6546 9.80401C15.5466 9.99107 15.3319 10.075 15.176 9.98496Z" fill="white"/>
</g>
<defs>
<clipPath id="clip0_59_1372">
<rect width="18" height="18" fill="white" transform="translate(3 3)"/>
</clipPath>
</defs>
</svg>
