<svg width="24" height="24" viewBox="0 0 24 24" fill="none" xmlns="http://www.w3.org/2000/svg">
<g clip-path="url(#clip0_59_1366)">
<path fill-rule="evenodd" clip-rule="evenodd" d="M5.88432 3H18.116C19.1186 3 19.483 3.1044 19.8487 3.30096C20.2116 3.49226 20.5081 3.78879 20.6994 4.15164C20.8956 4.5174 21 4.88172 21 5.88432V18.116C21 19.1186 20.8956 19.483 20.699 19.8487C20.5077 20.2116 20.2112 20.5081 19.8484 20.6994C19.4826 20.8963 19.1186 21.0004 18.116 21.0004H5.88432C4.88172 21.0004 4.5174 20.896 4.15056 20.6994C3.78372 20.5028 3.4968 20.2152 3.30096 19.848C3.10512 19.4808 3 19.1183 3 18.1157V5.88432C3 4.88172 3.1044 4.5174 3.30096 4.152C3.4922 3.78902 3.78874 3.49235 4.15164 3.30096C4.5174 3.1044 4.88172 3 5.88432 3Z" fill="#AB6993"/>
<path d="M11.172 11.1083C11.172 11.419 10.7781 12.1966 10.4124 12.7888C10.3954 12.8167 10.3841 12.8477 10.3793 12.8801C10.3745 12.9124 10.3762 12.9454 10.3843 12.977C10.4124 13.0768 10.5024 13.1462 10.6039 13.1462H13.3939C13.4363 13.1463 13.4779 13.1344 13.5139 13.112C13.5499 13.0896 13.5789 13.0576 13.5977 13.0195C13.6168 12.9812 13.6251 12.9384 13.6216 12.8958C13.6181 12.8531 13.603 12.8123 13.5779 12.7776C13.0577 12.0684 12.8219 11.5543 12.8219 11.1097C12.8219 10.6651 13.0541 10.1521 13.5757 9.4404C13.8147 9.10308 13.94 8.70492 13.94 8.2902C13.94 7.203 13.0681 6.31848 11.9967 6.31848C10.9254 6.31848 10.0535 7.20048 10.0535 8.28876C10.0523 8.70206 10.1807 9.10533 10.4207 9.44184C10.9391 10.151 11.1716 10.6651 11.1716 11.1086L11.172 11.1083ZM16.2192 13.4663H7.77574C7.71476 13.4669 7.65653 13.4918 7.61381 13.5353C7.5711 13.5788 7.54738 13.6375 7.54786 13.6985V16.0259C7.54786 16.1526 7.65046 16.2581 7.77574 16.2581H16.2192C16.2802 16.2574 16.3384 16.2326 16.3811 16.1891C16.4238 16.1456 16.4475 16.0869 16.4471 16.0259V13.6992C16.4471 13.5725 16.3445 13.467 16.2192 13.467V13.4663ZM14.9297 16.5983H9.07066C9.00968 16.5989 8.95145 16.6238 8.90873 16.6673C8.86602 16.7108 8.8423 16.7695 8.84278 16.8305V17.0922C8.84278 17.2189 8.94538 17.3244 9.07066 17.3244H14.9289C14.9899 17.3237 15.0481 17.2989 15.0909 17.2554C15.1336 17.2119 15.1573 17.1532 15.1568 17.0922V16.8305C15.1568 16.7038 15.0542 16.5983 14.9289 16.5983H14.9297Z" fill="white"/>
</g>
<defs>
<clipPath id="clip0_59_1366">
<rect width="18" height="18" fill="white" transform="translate(3 3)"/>
</clipPath>
</defs>
</svg>
