<svg width="24" height="24" viewBox="0 0 24 24" fill="none" xmlns="http://www.w3.org/2000/svg">
<g clip-path="url(#clip0_59_1164)">
<path fill-rule="evenodd" clip-rule="evenodd" d="M14.3483 13.08H19.7314C20.1716 13.08 20.3318 13.1268 20.4935 13.2121C20.6519 13.2964 20.7833 13.4274 20.8679 13.5865C20.955 13.7485 21 13.9087 21 14.3486V19.7317C21 20.172 20.9532 20.3322 20.8679 20.4938C20.7836 20.6522 20.6526 20.7836 20.4935 20.8682C20.3315 20.9554 20.1713 21.0004 19.7314 21.0004H14.3483C13.908 21.0004 13.7478 20.9536 13.5862 20.8682C13.4278 20.784 13.2964 20.653 13.2118 20.4938C13.1246 20.3318 13.0796 20.1716 13.0796 19.7317V14.3483C13.0796 13.908 13.1264 13.7478 13.2118 13.5862C13.296 13.4278 13.427 13.2964 13.5862 13.2118C13.7482 13.1246 13.9084 13.0796 14.3483 13.0796V13.08ZM14.3483 3H19.7314C20.1716 3 20.3318 3.0468 20.4935 3.13212C20.6519 3.21636 20.7833 3.3474 20.8679 3.50652C20.955 3.66852 21 3.82872 21 4.26864V9.65172C21 10.092 20.9532 10.2522 20.8679 10.4138C20.7836 10.5722 20.6526 10.7036 20.4935 10.7882C20.3315 10.8754 20.1713 10.9204 19.7314 10.9204H14.3483C13.908 10.9204 13.7478 10.8736 13.5862 10.7882C13.4278 10.704 13.2964 10.573 13.2118 10.4138C13.1246 10.2518 13.0796 10.0916 13.0796 9.65172V4.26828C13.0796 3.828 13.1264 3.6678 13.2118 3.50616C13.296 3.34776 13.427 3.21636 13.5862 3.13176C13.7478 3.045 13.908 3 14.3483 3ZM4.26828 13.08H9.65136C10.0916 13.08 10.2518 13.1268 10.4135 13.2121C10.5719 13.2964 10.7033 13.4274 10.7879 13.5865C10.875 13.7485 10.92 13.9087 10.92 14.3486V19.7317C10.92 20.172 10.8732 20.3322 10.7879 20.4938C10.7036 20.6522 10.5726 20.7836 10.4135 20.8682C10.2515 20.9554 10.0913 21.0004 9.65136 21.0004H4.26828C3.828 21.0004 3.6678 20.9536 3.50616 20.8682C3.34776 20.784 3.21636 20.653 3.13176 20.4938C3.045 20.3322 3 20.172 3 19.7317V14.3483C3 13.908 3.0468 13.7478 3.13212 13.5862C3.21636 13.4278 3.3474 13.2964 3.50652 13.2118C3.66852 13.1246 3.82872 13.0796 4.26864 13.0796L4.26828 13.08ZM4.26828 3H9.65136C10.0916 3 10.2518 3.0468 10.4135 3.13212C10.5719 3.21636 10.7033 3.3474 10.7879 3.50652C10.875 3.66852 10.92 3.82872 10.92 4.26864V9.65172C10.92 10.092 10.8732 10.2522 10.7879 10.4138C10.7036 10.5722 10.5726 10.7036 10.4135 10.7882C10.2515 10.8754 10.0913 10.9204 9.65136 10.9204H4.26828C3.828 10.9204 3.6678 10.8736 3.50616 10.7882C3.34776 10.704 3.21636 10.573 3.13176 10.4138C3.045 10.2522 3 10.092 3 9.65172V4.26828C3 3.828 3.0468 3.66672 3.13212 3.50616C3.21757 3.34761 3.34761 3.21757 3.50616 3.13212C3.6678 3.0468 3.828 3 4.26828 3Z" fill="#8FBC5D"/>
<path d="M15.6 18.048C15.6 18.2208 15.7433 18.3601 15.9179 18.3601C16.0013 18.3604 16.0815 18.3278 16.141 18.2694C16.2005 18.211 16.2345 18.1314 16.2358 18.048V16.6642L18.088 18.4822C18.1479 18.5409 18.2284 18.5738 18.3123 18.5738C18.3961 18.5738 18.4766 18.5409 18.5365 18.4822C18.5663 18.4536 18.59 18.4194 18.6062 18.3815C18.6224 18.3435 18.6308 18.3027 18.6309 18.2615C18.6309 18.1787 18.597 18.0995 18.5365 18.0408L16.6861 16.2239H18.0952C18.1786 16.2242 18.2587 16.1916 18.3182 16.1331C18.3778 16.0747 18.4118 15.9952 18.4131 15.9118C18.4131 15.739 18.2709 15.5997 18.0952 15.5997H15.9172C15.8751 15.5997 15.8344 15.6079 15.7948 15.6234C15.7174 15.6544 15.6555 15.7163 15.6231 15.7926C15.6061 15.8293 15.5993 15.8718 15.5993 15.9107L15.6 18.048ZM18.228 8.54869C18.4008 8.54869 18.5401 8.40541 18.5401 8.23081C18.5404 8.14741 18.5078 8.06726 18.4494 8.00775C18.391 7.94823 18.3114 7.91417 18.228 7.91293H16.8442L18.6622 6.06253C18.7205 6.00214 18.753 5.92147 18.753 5.83753C18.753 5.7536 18.7205 5.67293 18.6622 5.61253C18.6334 5.5832 18.599 5.5599 18.5611 5.54399C18.5231 5.52809 18.4824 5.5199 18.4413 5.5199C18.4002 5.5199 18.3595 5.52809 18.3216 5.54399C18.2836 5.5599 18.2493 5.5832 18.2205 5.61253L16.4035 7.46581V6.05713C16.4035 5.88145 16.2631 5.73925 16.0914 5.73925C16.0501 5.73939 16.0092 5.74771 15.9711 5.76371C15.933 5.77972 15.8985 5.8031 15.8695 5.83251C15.8405 5.86193 15.8176 5.89679 15.8021 5.93509C15.7866 5.9734 15.7789 6.01438 15.7793 6.05569V8.23369C15.7793 8.27437 15.7876 8.31649 15.8031 8.35465C15.834 8.43205 15.8945 8.49397 15.9723 8.52637C16.0101 8.54329 16.0497 8.55157 16.0918 8.55157H18.228V8.54869ZM6.04561 15.6C5.87281 15.6 5.73349 15.7433 5.73349 15.9179C5.73349 16.0925 5.87281 16.2358 6.04561 16.2358H7.42945L5.61145 18.084C5.48905 18.2093 5.48905 18.4087 5.61145 18.534C5.64023 18.5634 5.67456 18.5867 5.71245 18.6027C5.75034 18.6186 5.79103 18.6268 5.83213 18.6269C5.91493 18.6269 5.99413 18.5931 6.05281 18.534L7.86973 16.6818V18.0909C7.86973 18.2665 8.00905 18.4087 8.18185 18.4087C8.35465 18.4087 8.49397 18.264 8.49397 18.0909V15.9129C8.49397 15.8722 8.48569 15.8301 8.47021 15.7919C8.43925 15.7145 8.37733 15.6526 8.30101 15.6202C8.26337 15.6035 8.22265 15.5949 8.18149 15.595H6.04561V15.6ZM8.23225 5.73385C8.05657 5.73385 7.91437 5.87317 7.91437 6.04597V7.42981L6.06217 5.61181C6.00178 5.55352 5.92111 5.52095 5.83717 5.52095C5.75323 5.52095 5.67257 5.55352 5.61217 5.61181C5.58299 5.64061 5.55982 5.67491 5.54399 5.71273C5.52817 5.75055 5.52002 5.79114 5.52001 5.83213C5.52001 5.91493 5.55385 5.99413 5.61289 6.05281L7.46509 7.86973H6.05569C5.88001 7.86973 5.73781 8.00905 5.73781 8.18185C5.73781 8.35465 5.88253 8.49397 6.05569 8.49397H8.23369C8.27517 8.49396 8.31625 8.48589 8.35465 8.47021C8.43205 8.43421 8.49505 8.37733 8.52637 8.30101C8.54437 8.26429 8.55157 8.22181 8.55157 8.18149V6.04561C8.55157 5.87281 8.40937 5.73349 8.23369 5.73349L8.23225 5.73385Z" fill="white"/>
</g>
<defs>
<clipPath id="clip0_59_1164">
<rect width="18" height="18" fill="white" transform="translate(3 3)"/>
</clipPath>
</defs>
</svg>
