
<svg xmlns="http://www.w3.org/2000/svg" width="40" height="58" viewBox="0 0 40 58">
  <g fill="none" fill-rule="evenodd">
    <rect width="40" height="18" fill="#207245" rx="2"/>
    <path fill="#FFF" d="M6.573,11.68 L8.465,8.919 L6.738,6.334 C6.628,6.169 6.551,5.993 6.551,5.784 C6.551,5.311 6.936,4.937 7.453,4.937 C7.882,4.937 8.091,5.19 8.201,5.377 L9.51,7.632 L10.907,5.377 C11.094,5.08 11.248,4.937 11.644,4.937 C12.084,4.937 12.513,5.179 12.513,5.751 C12.513,5.905 12.436,6.114 12.348,6.235 L10.511,8.919 L12.304,11.614 C12.491,11.9 12.601,12.043 12.601,12.252 C12.601,12.835 12.183,13.143 11.677,13.143 C11.38,13.143 11.127,13.077 10.918,12.725 L9.466,10.294 L7.904,12.791 C7.75,13.044 7.475,13.143 7.2,13.143 C6.672,13.143 6.331,12.813 6.331,12.373 C6.331,12.186 6.364,11.988 6.573,11.68 Z M13.658,11.944 L13.658,5.839 C13.658,5.3 14.01,4.937 14.56,4.937 C15.11,4.937 15.462,5.3 15.462,5.839 L15.462,11.482 L18.476,11.482 C18.993,11.482 19.411,11.746 19.411,12.241 C19.411,12.736 18.993,13 18.476,13 L14.714,13 C14.076,13 13.658,12.747 13.658,11.944 Z M23.119,8.072 L24.626,8.413 C26.276,8.787 26.694,9.766 26.694,10.69 C26.694,12.12 25.616,13.187 23.438,13.187 C21.15,13.187 20.127,12.043 20.127,11.185 C20.127,10.745 20.446,10.437 20.886,10.437 C21.865,10.437 21.612,11.867 23.438,11.867 C24.373,11.867 24.89,11.35 24.89,10.822 C24.89,10.503 24.736,10.151 24.12,9.997 L22.085,9.48 C20.446,9.062 20.149,8.16 20.149,7.313 C20.149,5.553 21.777,4.893 23.306,4.893 C24.714,4.893 26.375,5.685 26.375,6.741 C26.375,7.192 25.99,7.456 25.55,7.456 C24.714,7.456 24.868,6.279 23.185,6.279 C22.349,6.279 21.887,6.664 21.887,7.214 C21.887,7.764 22.547,7.94 23.119,8.072 Z M27.641,11.68 L29.533,8.919 L27.806,6.334 C27.696,6.169 27.619,5.993 27.619,5.784 C27.619,5.311 28.004,4.937 28.521,4.937 C28.95,4.937 29.159,5.19 29.269,5.377 L30.578,7.632 L31.975,5.377 C32.162,5.08 32.316,4.937 32.712,4.937 C33.152,4.937 33.581,5.179 33.581,5.751 C33.581,5.905 33.504,6.114 33.416,6.235 L31.579,8.919 L33.372,11.614 C33.559,11.9 33.669,12.043 33.669,12.252 C33.669,12.835 33.251,13.143 32.745,13.143 C32.448,13.143 32.195,13.077 31.986,12.725 L30.534,10.294 L28.972,12.791 C28.818,13.044 28.543,13.143 28.268,13.143 C27.74,13.143 27.399,12.813 27.399,12.373 C27.399,12.186 27.432,11.988 27.641,11.68 Z"/>
    <path fill="#207245" fill-rule="nonzero" d="M20.9630713,24.0001698 L23.5386566,24.0001698 C23.5386566,25.0313251 23.5386566,26.0586016 23.5386566,27.0897613 C27.8789979,27.0897613 32.2193392,27.0980329 36.5596722,27.0780068 C37.2924569,27.1049985 38.0989557,27.0584161 38.7363406,27.4487503 C39.1829301,28.0203205 39.1308935,28.7463743 39.1612862,29.4029116 C39.1399477,36.1073087 39.1483158,42.8078529 39.1524998,49.5083798 C39.1311613,50.6322297 39.2695686,51.7792272 39.005055,52.8876266 C38.8316274,53.6909114 37.7476111,53.7102061 37.0234999,53.7372587 C32.5314,53.7494485 28.0349656,53.7289871 23.5385353,53.7372587 C23.5385353,54.8958626 23.5385353,56.0544403 23.5385353,57.2130442 L20.845877,57.2130442 C14.2378146,56.1432734 7.61673582,55.1545994 1,54.1234614 C1,45.1134412 1,36.1034428 1,27.0934574 C7.65576434,26.0622977 14.3115203,25.0465929 20.9629542,24 L20.9630713,24.0001698 Z M23.5386566,28.2483434 C23.5386566,29.0207445 23.5386566,29.7931413 23.5386566,30.5655468 C24.6963744,30.5655468 25.8497492,30.5655468 27.0074586,30.5655468 C27.0074586,31.4653834 27.0074586,32.3690772 27.0074586,33.2689225 C25.8497492,33.2689225 24.6963744,33.2689225 23.5386566,33.2689225 C23.5386566,33.7825694 23.5386566,34.3000822 23.5386566,34.813716 C24.6963744,34.813716 25.8497492,34.813716 27.0074586,34.813716 C27.0074586,35.713557 27.0074586,36.6172638 27.0074586,37.5170961 C25.8497492,37.5170961 24.6963744,37.5170961 23.5386566,37.5170961 C23.5386566,38.030756 23.5386566,38.5482558 23.5386566,39.061894 C24.6963744,39.061894 25.8497492,39.061894 27.0074586,39.061894 C27.0074586,39.9617436 27.0074586,40.8654418 27.0074586,41.7652914 C25.8497492,41.7652914 24.6963744,41.7652914 23.5386566,41.7652914 C23.5386566,42.2789253 23.5386566,42.7964294 23.5386566,43.3100676 C24.6963744,43.3100676 25.8497492,43.3100676 27.0074586,43.3100676 C27.0074586,44.2099216 27.0074586,45.113611 27.0074586,46.013465 C25.8497492,46.013465 24.6963744,46.013465 23.5386566,46.013465 C23.5386566,46.5270989 23.5386566,47.0446073 23.5386566,47.5582586 C24.6963744,47.5582586 25.8497492,47.5582586 27.0074586,47.5582586 C27.0074586,48.4580952 27.0074586,49.361802 27.0074586,50.2616386 C25.8497492,50.2616386 24.6963744,50.2616386 23.5386566,50.2616386 C23.5386566,51.034031 23.5386566,51.8064278 23.5386566,52.5788246 C28.3082614,52.5788246 33.0778579,52.5788246 37.8474627,52.5788246 C37.8474627,44.4686671 37.8474627,36.3585096 37.8474627,28.2483434 C33.0778579,28.2483434 28.3082614,28.2483434 23.5386566,28.2483434 Z M13.843358,34.1842052 L13.843358,34.1842575 C13.1105691,35.7715281 12.256385,37.3163304 11.6840323,38.9576713 C11.1506997,37.4090162 10.4439312,35.9182843 9.7978686,34.4082491 C8.84394596,34.4547008 7.89002751,34.5047225 6.93610905,34.5550053 C7.94205995,36.5323359 9.01305142,38.4826399 9.98865564,40.4715508 C8.8396155,42.4025514 7.76428521,44.3605786 6.64993059,46.3031334 C7.5995144,46.3376566 8.54909821,46.372441 9.49868621,46.3841954 C10.1750997,44.8471206 11.0162839,43.3679821 11.6059794,41.8000149 C12.1349732,43.4838416 13.0325246,45.0402198 13.7696481,46.6506684 C14.8146192,46.7163626 15.855264,46.7743512 16.9002392,46.8283345 C15.7035054,44.6656191 14.4850859,42.5183587 13.2926868,40.3556477 C14.4720778,38.2508643 15.6341261,36.1383665 16.7918397,34.0258687 C15.8075662,34.0683588 14.8232927,34.1223421 13.843358,34.1842052 Z M28.7418554,30.5655468 C30.7667695,30.5655468 32.787349,30.5655468 34.8122631,30.5655468 C34.8122631,31.4653834 34.8122631,32.3690772 34.8122631,33.2689225 C32.787349,33.2689225 30.7667695,33.2689225 28.7418554,33.2689225 C28.7418554,32.3690772 28.7418554,31.4653834 28.7418554,30.5655468 Z M28.7418554,34.813716 C30.7667695,34.813716 32.787349,34.813716 34.8122631,34.813716 C34.8122631,35.713557 34.8122631,36.6172638 34.8122631,37.5170961 C32.787349,37.5170961 30.7667695,37.5170961 28.7418554,37.5170961 C28.7418554,36.6172638 28.7418554,35.713557 28.7418554,34.813716 Z M28.7418554,39.061894 C30.7667695,39.061894 32.787349,39.061894 34.8122631,39.061894 C34.8122631,39.9617436 34.8122631,40.8654418 34.8122631,41.7652914 C32.787349,41.7652914 30.7667695,41.7652914 28.7418554,41.7652914 C28.7418554,40.8654418 28.7418554,39.9617436 28.7418554,39.061894 Z M28.7418554,43.3100676 C30.7667695,43.3100676 32.787349,43.3100676 34.8122631,43.3100676 C34.8122631,44.2099216 34.8122631,45.113611 34.8122631,46.013465 C32.787349,46.013465 30.7667695,46.013465 28.7418554,46.013465 C28.7418554,45.113611 28.7418554,44.2099216 28.7418554,43.3100676 Z M28.7418554,47.5582586 C30.7667695,47.5582586 32.787349,47.5582586 34.8122631,47.5582586 C34.8122631,48.4580952 34.8122631,49.361802 34.8122631,50.2616386 C32.787349,50.2616386 30.7667695,50.2616386 28.7418554,50.2616386 C28.7418554,49.361802 28.7418554,48.4580952 28.7418554,47.5582586 Z"/>
  </g>
</svg>
