 <svg width="47px" height="48px" viewBox="0 0 47 48" version="1.1" xmlns="http://www.w3.org/2000/svg"
>
    <g stroke="none" strokeWidth="1" fill="none" fillRule="evenodd">
    <g transform="translate(-1309.000000, -194.000000)" fill="#FE4F62" fillRule="nonzero">
        <g transform="translate(1309.000000, 194.000000)">
        <path d="M37,2 L37,10 L45,10 L45,2 L37,2 Z M36,0 L46,0 C46.5522847,0 47,0.44771525 47,1 L47,11 C47,11.5522847 46.5522847,12 46,12 L36,12 C35.4477153,12 35,11.5522847 35,11 L35,1 C35,0.44771525 35.4477153,0 36,0 Z" id="Rectangle-17" fill="#FE4F62"></path>
        <path d="M37,2 L37,10 L45,10 L45,2 L37,2 Z M36,0 L46,0 C46.5522847,0 47,0.44771525 47,1 L47,11 C47,11.5522847 46.5522847,12 46,12 L36,12 C35.4477153,12 35,11.5522847 35,11 L35,1 C35,0.44771525 35.4477153,0 36,0 Z"
            id="Rectangle-17"></path>
        <path d="M37,20 L37,28 L45,28 L45,20 L37,20 Z M36,18 L46,18 C46.5522847,18 47,18.4477153 47,19 L47,29 C47,29.5522847 46.5522847,30 46,30 L36,30 C35.4477153,30 35,29.5522847 35,29 L35,19 C35,18.4477153 35.4477153,18 36,18 Z"
            id="Rectangle-17-Copy"></path>
        <path d="M37,38 L37,46 L45,46 L45,38 L37,38 Z M36,36 L46,36 C46.5522847,36 47,36.4477153 47,37 L47,47 C47,47.5522847 46.5522847,48 46,48 L36,48 C35.4477153,48 35,47.5522847 35,47 L35,37 C35,36.4477153 35.4477153,36 36,36 Z"
            id="Rectangle-17-Copy-2"></path>
        <path d="M26,42 L31,42 C31.5522847,42 32,42.4477153 32,43 C32,43.5522847 31.5522847,44 31,44 L24,44 L24,4 L31,4 C31.5522847,4 32,4.44771525 32,5 C32,5.55228475 31.5522847,6 31,6 L26,6 L26,23 L31,23 C31.5522847,23 32,23.4477153 32,24 C32,24.5522847 31.5522847,25 31,25 L26,25 L26,42 Z"
            id="Combined-Shape"></path>
        <path d="M11.6626536,12.4 L2.4,12.4 L2.4,30.6 L15.1102041,30.6 L15.1102041,15.7963194 L11.6626536,12.4 Z M11.6626536,10 C12.2929501,10 12.8979484,10.2479497 13.346959,10.690288 L17.5102041,14.7916667 L17.5102041,30.6 C17.5102041,31.9254834 16.4356875,33 15.1102041,33 L2.4,33 C1.0745166,33 5.68434189e-13,31.9254834 5.68434189e-13,30.6 L0,12.4 C0,11.0745166 1.0745166,10 2.4,10 L11.6626536,10 Z M16.1882086,15.4722222 C16.5463797,15.4722222 16.8367347,15.7582625 16.8367347,16.1111111 C16.8367347,16.4639597 16.5463797,16.75 16.1882086,16.75 L11.6485261,16.75 C11.290355,16.75 11,16.4639597 11,16.1111111 L11,11.6388889 C11,11.2860403 11.290355,11 11.6485261,11 C12.0066971,11 12.2970522,11.2860403 12.2970522,11.6388889 L16.1882086,15.4722222 Z"
            id="Rectangle-8-Copy"></path>
        </g>
    </g>
    </g>
</svg>