<svg xmlns="http://www.w3.org/2000/svg" width="12" height="16" viewBox="0 0 12 16">
  <path fill="#7D7D7D" fill-rule="evenodd"
    d="M231.5,564.25 L230.75,564.25 L230.75,562.75 C230.75,560.68 229.07,559 227,559 C224.93,559 223.25,560.68 223.25,562.75 L223.25,564.25 L222.5,564.25 C221.675,564.25 221,564.925 221,565.75 L221,573.25 C221,574.075 221.675,574.75 222.5,574.75 L231.5,574.75 C232.325,574.75 233,574.075 233,573.25 L233,565.75 C233,564.925 232.325,564.25 231.5,564.25 L231.5,564.25 Z M227,571 C226.175,571 225.5,570.325 225.5,569.5 C225.5,568.675 226.175,568 227,568 C227.825,568 228.5,568.675 228.5,569.5 C228.5,570.325 227.825,571 227,571 L227,571 Z M229.325,564.25 L224.675,564.25 L224.675,562.75 C224.675,561.4675 225.7175,560.425 227,560.425 C228.2825,560.425 229.325,561.4675 229.325,562.75 L229.325,564.25 L229.325,564.25 Z"
    transform="translate(-221 -559)" />
</svg>