<svg width="24" height="24" viewBox="0 0 24 24" fill="none" xmlns="http://www.w3.org/2000/svg">
<path d="M24 12C24 5.37258 18.6274 0 12 0C5.37258 0 0 5.37258 0 12C0 18.6274 5.37258 24 12 24C18.6274 24 24 18.6274 24 12Z" fill="url(#paint0_linear_2401_5942)"/>
<path d="M13.7163 13.721C16.8079 10.6295 19.2821 7.31684 21.0316 4.10526C20.8568 3.90105 20.6747 3.70421 20.4853 3.51473C20.485 3.51443 20.4847 3.51412 20.4844 3.51382C18.3129 1.34278 15.3132 0 12 0C5.37258 0 0 5.37258 0 12C0 15.2419 1.28558 18.1836 3.37476 20.343C3.42258 20.3908 3.47082 20.4382 3.51948 20.4853C3.70895 20.6747 3.90421 20.8568 4.10527 21.0316C7.31211 19.2821 10.6247 16.8126 13.7163 13.721Z" fill="url(#paint1_linear_2401_5942)"/>
<path d="M14.842 5.68433H9.15777C8.23649 5.68433 7.35294 6.0503 6.7015 6.70174C6.05006 7.35319 5.68408 8.23673 5.68408 9.15801V14.8422C5.68408 15.7635 6.05006 16.647 6.7015 17.2985C7.35294 17.9499 8.23649 18.3159 9.15777 18.3159H14.842C15.7633 18.3159 16.6468 17.9499 17.2982 17.2985C17.9497 16.647 18.3157 15.7635 18.3157 14.8422V9.15801C18.3157 8.23673 17.9497 7.35319 17.2982 6.70174C16.6468 6.0503 15.7633 5.68433 14.842 5.68433ZM17.2104 14.3433C17.2104 15.1037 16.9083 15.8331 16.3706 16.3708C15.8328 16.9085 15.1035 17.2106 14.343 17.2106H9.65671C8.89624 17.2106 8.16691 16.9085 7.62918 16.3708C7.09144 15.8331 6.78935 15.1037 6.78935 14.3433V9.65696C6.78935 8.89648 7.09144 8.16716 7.62918 7.62942C8.16691 7.09169 8.89624 6.78959 9.65671 6.78959H14.343C15.1035 6.78959 15.8328 7.09169 16.3706 7.62942C16.9083 8.16716 17.2104 8.89648 17.2104 9.65696V14.3433Z" fill="white"/>
<path d="M14.3039 9.72001L14.2739 9.69001L14.2486 9.66475C13.6516 9.06981 12.843 8.73593 12.0002 8.73633C11.5746 8.73922 11.1537 8.82595 10.7616 8.99155C10.3695 9.15715 10.0139 9.39839 9.71507 9.70147C9.41624 10.0046 9.18006 10.3635 9.02001 10.7579C8.85996 11.1523 8.77919 11.5744 8.78231 12C8.78167 12.8638 9.12215 13.6929 9.72968 14.3069C10.0273 14.6081 10.3819 14.847 10.7728 15.0096C11.1637 15.1723 11.5831 15.2554 12.0065 15.2542C12.6416 15.2409 13.2591 15.0431 13.7838 14.6848C14.3084 14.3266 14.7174 13.8234 14.9609 13.2367C15.2045 12.65 15.272 12.0051 15.1554 11.3807C15.0387 10.7562 14.7429 10.1792 14.3039 9.72001V9.72001ZM12.0002 14.1411C11.5755 14.147 11.1587 14.0265 10.8026 13.7949C10.4466 13.5633 10.1675 13.231 10.0009 12.8404C9.83421 12.4497 9.78751 12.0183 9.8667 11.601C9.9459 11.1837 10.1474 10.7994 10.4456 10.497C10.7438 10.1945 11.1252 9.98763 11.5414 9.90256C11.9575 9.81749 12.3895 9.8581 12.7825 10.0192C13.1755 10.1804 13.5116 10.4547 13.7482 10.8074C13.9849 11.1602 14.1112 11.5753 14.1113 12C14.1133 12.2792 14.0604 12.5561 13.9554 12.8149C13.8504 13.0736 13.6955 13.3092 13.4994 13.508C13.3034 13.7068 13.07 13.8651 12.8128 13.9737C12.5556 14.0823 12.2794 14.1392 12.0002 14.1411V14.1411Z" fill="white"/>
<path d="M16.1734 8.58643C16.1742 8.68775 16.155 8.78824 16.117 8.88214C16.0789 8.97605 16.0227 9.06153 15.9516 9.13369C15.8805 9.20584 15.7958 9.26326 15.7024 9.30266C15.6091 9.34205 15.5089 9.36265 15.4076 9.36327C15.3071 9.36322 15.2076 9.34324 15.1149 9.30449C15.0223 9.26573 14.9382 9.20896 14.8676 9.13748C14.7606 9.02895 14.6878 8.89141 14.6583 8.74191C14.6288 8.59242 14.6438 8.43754 14.7014 8.29649C14.7591 8.15544 14.8569 8.03441 14.9827 7.94842C15.1085 7.86243 15.2568 7.81525 15.4092 7.81274C15.5875 7.81271 15.7602 7.8753 15.897 7.98959L15.9128 8.00538C15.9383 8.0261 15.9616 8.04938 15.9823 8.07485L15.9997 8.0938C16.1127 8.23304 16.1741 8.40709 16.1734 8.58643V8.58643Z" fill="white"/>
<defs>
<linearGradient id="paint0_linear_2401_5942" x1="3.51474" y1="3.51474" x2="20.4853" y2="20.4853" gradientUnits="userSpaceOnUse">
<stop stop-color="#FAE100"/>
<stop offset="0.15" stop-color="#FCB720"/>
<stop offset="0.3" stop-color="#FF7950"/>
<stop offset="0.5" stop-color="#FF1C74"/>
<stop offset="1" stop-color="#6C1CD1"/>
</linearGradient>
<linearGradient id="paint1_linear_2401_5942" x1="3.51474" y1="3.51474" x2="20.4853" y2="20.4853" gradientUnits="userSpaceOnUse">
<stop stop-color="#FAE100"/>
<stop offset="0.15" stop-color="#FCB720"/>
<stop offset="0.3" stop-color="#FF7950"/>
<stop offset="0.5" stop-color="#FF1C74"/>
<stop offset="1" stop-color="#6C1CD1"/>
</linearGradient>
</defs>
</svg>
