<svg width="24" height="24" viewBox="0 0 24 24" fill="none" xmlns="http://www.w3.org/2000/svg">
<g clip-path="url(#clip0_59_1176)">
<path fill-rule="evenodd" clip-rule="evenodd" d="M14.6366 8.63616H11.1997C10.308 8.63616 9.98472 8.72904 9.65892 8.90328C9.33687 9.07394 9.07368 9.33763 8.90364 9.66C8.7294 9.98472 8.63652 10.308 8.63652 11.1997V14.6366H4.8648C4.2168 14.6366 3.9828 14.5693 3.74412 14.4422C3.51084 14.317 3.31788 14.1254 3.1944 13.8925C3.06768 13.6549 3 13.4209 3 12.7718V4.8648C3 4.2168 3.06768 3.9828 3.1944 3.74412C3.32112 3.50544 3.504 3.3204 3.74376 3.1944C3.98352 3.0684 4.2168 3 4.8648 3H12.7722C13.4202 3 13.6553 3.06768 13.8929 3.1944C14.1262 3.31824 14.3177 3.5112 14.4426 3.74412C14.5693 3.98172 14.637 4.2168 14.637 4.8648L14.6366 8.63616Z" fill="#DCE5FA"/>
<path d="M8.21177 5.70719C8.21054 5.62379 8.17647 5.54425 8.11696 5.48582C8.05745 5.42738 7.9773 5.39477 7.89389 5.39507C7.72109 5.39507 7.57601 5.53547 7.57601 5.70719V7.09103L5.72381 5.27375C5.66392 5.21504 5.5834 5.18216 5.49953 5.18216C5.41567 5.18216 5.33515 5.21504 5.27525 5.27375C5.21477 5.33135 5.18237 5.41055 5.18237 5.49335C5.18237 5.57615 5.21837 5.65643 5.27525 5.71403L7.12745 7.53203H5.71697C5.54129 7.53203 5.39909 7.67135 5.39909 7.84271C5.39909 8.01407 5.54237 8.15483 5.71697 8.15483H7.89677C7.93823 8.15455 7.97926 8.14649 8.01773 8.13107C8.09513 8.10011 8.15705 8.03963 8.18945 7.96187C8.20745 7.92515 8.21321 7.88447 8.21321 7.84379L8.21465 5.70611L8.21177 5.70719Z" fill="#295795"/>
<path fill-rule="evenodd" clip-rule="evenodd" d="M11.2278 9.36337H19.1352C19.7832 9.36337 20.0172 9.43105 20.2559 9.55885C20.4898 9.68261 20.6813 9.87357 20.8056 10.1071C20.9324 10.3447 21 10.5798 21 11.2278V19.1352C21 19.7832 20.9327 20.0172 20.8056 20.2559C20.6786 20.4946 20.4935 20.6792 20.2559 20.8056C20.0183 20.932 19.7836 21 19.1352 21H11.2278C10.5798 21 10.3448 20.9327 10.1072 20.8056C9.87388 20.6818 9.68236 20.4888 9.55744 20.2559C9.43072 20.0183 9.36304 19.7836 9.36304 19.1352V11.2278C9.36304 10.5798 9.43072 10.3447 9.55744 10.1071C9.68272 9.87385 9.87424 9.68233 10.1072 9.55741C10.3448 9.43069 10.5798 9.36301 11.2278 9.36301V9.36337Z" fill="#5F83C6"/>
<path d="M17.0386 12.63H18.106L17.0476 17.9004H15.9337L15.294 14.6478L14.6374 17.9004H13.4832L12.432 12.63H13.571L14.1139 16.0007L14.8116 12.63H15.893L16.5148 15.9769L17.0386 12.63Z" fill="white"/>
</g>
<defs>
<clipPath id="clip0_59_1176">
<rect width="18" height="18" fill="white" transform="translate(3 3)"/>
</clipPath>
</defs>
</svg>
