<svg width="24" height="24" viewBox="0 0 24 24" fill="none" xmlns="http://www.w3.org/2000/svg">
<g clip-path="url(#clip0_59_1367)">
<path fill-rule="evenodd" clip-rule="evenodd" d="M5.88432 3H18.1157C19.1186 3 19.4822 3.108 19.8491 3.3006C20.2115 3.49244 20.5079 3.78883 20.6998 4.15128C20.896 4.51848 21.0004 4.88208 21.0004 5.88468V18.116C21.0004 19.119 20.8924 19.4826 20.6998 19.8494C20.5079 20.2119 20.2115 20.5083 19.8491 20.7001C19.4819 20.8963 19.1183 21.0007 18.1157 21.0007H5.88432C4.88136 21.0007 4.51776 20.8927 4.15092 20.7001C3.78847 20.5083 3.49208 20.2119 3.30024 19.8494C3.108 19.4822 3 19.1186 3 18.1157V5.88432C3 4.88136 3.108 4.51776 3.3006 4.15092C3.4924 3.78866 3.78866 3.4924 4.15092 3.3006C4.51776 3.108 4.88136 3 5.88432 3Z" fill="#AB6993"/>
<path d="M11.4117 7.77358C11.4704 7.76607 11.5299 7.77017 11.5869 7.78566C11.644 7.80115 11.6974 7.82772 11.7442 7.86386C11.7909 7.89999 11.8301 7.94499 11.8595 7.99627C11.8889 8.04755 11.9079 8.10412 11.9154 8.16274C11.9229 8.22136 11.9188 8.28089 11.9033 8.33793C11.8878 8.39497 11.8612 8.44839 11.8251 8.49516C11.789 8.54193 11.744 8.58112 11.6927 8.6105C11.6414 8.63988 11.5848 8.65887 11.5262 8.66638C9.5995 8.91334 8.12998 10.5427 8.12998 12.4961C8.12998 14.0826 9.0991 15.4787 10.5513 16.0694C10.6619 16.1144 10.7501 16.2014 10.7965 16.3114C10.8428 16.4214 10.8436 16.5453 10.7987 16.6559C10.7537 16.7664 10.6666 16.8546 10.5567 16.901C10.4467 16.9474 10.3228 16.9482 10.2122 16.9032C8.42554 16.176 7.22998 14.4537 7.22998 12.4961C7.22998 10.0851 9.04078 8.07778 11.4117 7.77358ZM16.7318 11.8909C16.7402 11.9494 16.737 12.009 16.7223 12.0662C16.7076 12.1235 16.6818 12.1773 16.6464 12.2246C16.6109 12.2719 16.5665 12.3117 16.5157 12.3418C16.4648 12.3719 16.4085 12.3918 16.35 12.4001C16.2915 12.4085 16.232 12.4053 16.1747 12.3906C16.1175 12.3759 16.0636 12.3501 16.0164 12.3147C15.9691 12.2792 15.9292 12.2348 15.8991 12.184C15.869 12.1331 15.8492 12.0768 15.8408 12.0183C15.7869 11.6252 15.6772 11.2418 15.515 10.8797C15.4907 10.8258 15.4772 10.7677 15.4753 10.7086C15.4734 10.6496 15.4832 10.5907 15.504 10.5354C15.5249 10.4801 15.5564 10.4295 15.5969 10.3864C15.6373 10.3433 15.6858 10.3086 15.7397 10.2842C15.7935 10.2599 15.8516 10.2464 15.9107 10.2445C15.9698 10.2426 16.0286 10.2524 16.0839 10.2732C16.1392 10.2941 16.1898 10.3256 16.2329 10.3661C16.276 10.4065 16.3108 10.455 16.3351 10.5089C16.5313 10.9427 16.662 11.4024 16.7318 11.8913V11.8909ZM12.6156 17.2175C12.5571 17.2258 12.4975 17.2226 12.4402 17.2079C12.383 17.1933 12.3292 17.1675 12.2819 17.132C12.1864 17.0604 12.1233 16.9538 12.1064 16.8357C12.0895 16.7175 12.1202 16.5975 12.1918 16.502C12.2634 16.4065 12.37 16.3434 12.4881 16.3265C12.8841 16.2699 13.2531 16.1663 13.6005 16.0125C13.6546 15.9886 13.7128 15.9755 13.7719 15.9741C13.831 15.9726 13.8898 15.9829 13.9449 16.0041C14 16.0254 14.0505 16.0573 14.0933 16.0981C14.1361 16.1389 14.1704 16.1876 14.1944 16.2417C14.2183 16.2957 14.2314 16.3539 14.2328 16.413C14.2343 16.4721 14.2241 16.5309 14.2028 16.5861C14.1815 16.6412 14.1496 16.6916 14.1088 16.7344C14.068 16.7772 14.0193 16.8116 13.9652 16.8355C13.5411 17.0234 13.0922 17.1494 12.6159 17.2171L12.6156 17.2175ZM15.7807 15.4182C15.7452 15.4655 15.7008 15.5053 15.65 15.5354C15.5991 15.5655 15.5428 15.5853 15.4843 15.5937C15.4258 15.602 15.3663 15.5988 15.309 15.5841C15.2518 15.5694 15.198 15.5436 15.1507 15.5082C15.1034 15.4727 15.0636 15.4283 15.0335 15.3775C15.0034 15.3266 14.9836 15.2703 14.9752 15.2118C14.9669 15.1533 14.9701 15.0937 14.9848 15.0365C14.9994 14.9793 15.0252 14.9255 15.0607 14.8782C15.3192 14.5337 15.515 14.1906 15.6464 13.8464C15.6672 13.7908 15.6988 13.7399 15.7394 13.6965C15.78 13.6532 15.8287 13.6183 15.8829 13.5939C15.937 13.5695 15.9954 13.5561 16.0547 13.5543C16.1141 13.5526 16.1732 13.5626 16.2286 13.5838C16.2841 13.605 16.3348 13.637 16.3778 13.6779C16.4209 13.7188 16.4554 13.7678 16.4794 13.8221C16.5034 13.8764 16.5165 13.9349 16.5178 13.9942C16.5191 14.0536 16.5086 14.1126 16.487 14.1679C16.32 14.5941 16.086 15.0096 15.78 15.4182H15.7807Z" fill="white"/>
<path fill-rule="evenodd" clip-rule="evenodd" d="M11.7415 10.56C11.5878 10.56 11.4607 10.4326 11.4607 10.2792V6.3408C11.4607 6.18708 11.5881 6.06 11.7415 6.06C11.8164 6.06 11.8866 6.0906 11.9395 6.14352L13.9087 8.11272C13.9613 8.16528 13.9922 8.23584 13.9922 8.31072C13.9922 8.3856 13.9616 8.4558 13.9087 8.50872L11.9395 10.4779C11.8869 10.5305 11.8164 10.5614 11.7415 10.5614V10.56Z" fill="white"/>
</g>
<defs>
<clipPath id="clip0_59_1367">
<rect width="18" height="18" fill="white" transform="translate(3 3)"/>
</clipPath>
</defs>
</svg>
