<svg width="24" height="24" viewBox="0 0 24 24" fill="none" xmlns="http://www.w3.org/2000/svg">
<g clip-path="url(#clip0_59_1373)">
<path d="M5.88 3H18.12C19.1219 3 19.4974 3.0936 19.8419 3.3132C20.2096 3.49316 20.5068 3.79044 20.6868 4.15812C20.8747 4.53396 21 4.87812 21 5.88V18.12C21 19.1219 20.9064 19.4974 20.6868 19.8419C20.5068 20.2096 20.2096 20.5068 19.8419 20.6868C19.466 20.8747 19.1219 21 18.12 21H5.88C4.87812 21 4.50264 20.9064 4.15812 20.6868C3.81396 20.4679 3.50076 20.2174 3.3132 19.8419C3.12528 19.466 3 19.1219 3 18.12V5.88C3 4.87812 3.0936 4.50264 3.3132 4.15812C3.49318 3.79046 3.79046 3.49318 4.15812 3.3132C4.50264 3.0936 4.87812 3 5.88 3Z" fill="#EE6C4D"/>
<mask id="mask0_59_1373" style="mask-type:alpha" maskUnits="userSpaceOnUse" x="8" y="7" width="8" height="10">
<path fill-rule="evenodd" clip-rule="evenodd" d="M14.1838 16.1627H9.81624C9.4872 16.1627 9.22044 15.8855 9.22044 15.5435V8.45652C9.22044 8.11488 9.4872 7.83768 9.81624 7.83768H12.675V9.30396C12.675 9.49492 12.7509 9.67805 12.8859 9.81308C13.0209 9.9481 13.204 10.024 13.395 10.024H14.7792V15.5442C14.7792 15.8858 14.5128 16.1627 14.1838 16.1627ZM9.81624 16.7808H14.1838C14.8418 16.7808 15.375 16.2268 15.375 15.5435V10.0376C15.375 9.70932 15.2494 9.39468 15.0258 9.16248L13.525 7.58136C13.4162 7.46727 13.2856 7.37634 13.1408 7.31404C12.996 7.25174 12.8402 7.21936 12.6826 7.21884H9.81624C9.15816 7.21884 8.625 7.77288 8.625 8.45616V15.5438C8.625 16.2271 9.15816 16.7812 9.81624 16.7812V16.7808Z" fill="white"/>
</mask>
<g mask="url(#mask0_59_1373)">
<path fill-rule="evenodd" clip-rule="evenodd" d="M14.1838 16.1627H9.81624C9.4872 16.1627 9.22044 15.8855 9.22044 15.5435V8.45652C9.22044 8.11488 9.4872 7.83768 9.81624 7.83768H12.675V9.30396C12.675 9.49492 12.7509 9.67805 12.8859 9.81308C13.0209 9.9481 13.204 10.024 13.395 10.024H14.7792V15.5442C14.7792 15.8858 14.5128 16.1627 14.1838 16.1627ZM9.81624 16.7808H14.1838C14.8418 16.7808 15.375 16.2268 15.375 15.5435V10.0376C15.375 9.70932 15.2494 9.39468 15.0258 9.16248L13.525 7.58136C13.4162 7.46727 13.2856 7.37634 13.1408 7.31404C12.996 7.25174 12.8402 7.21936 12.6826 7.21884H9.81624C9.15816 7.21884 8.625 7.77288 8.625 8.45616V15.5438C8.625 16.2271 9.15816 16.7812 9.81624 16.7812V16.7808Z" fill="white"/>
</g>
<path fill-rule="evenodd" clip-rule="evenodd" d="M18.1877 6.9348V8.26104C18.1877 8.463 18.0257 8.625 17.8238 8.625C17.6218 8.625 17.4598 8.463 17.4598 8.2614V6.93444C17.4598 6.72564 17.2744 6.54024 17.0656 6.54024H15.739C15.5371 6.54024 15.3751 6.37824 15.3751 6.17664C15.3751 5.97432 15.5371 5.81268 15.7387 5.81268H17.0656C17.678 5.81268 18.1877 6.32208 18.1877 6.93444V6.9348ZM5.81274 17.0652V15.739C5.81274 15.537 5.97474 15.375 6.17634 15.375C6.3783 15.375 6.5403 15.537 6.5403 15.7386V17.0656C6.5403 17.2744 6.7257 17.4598 6.9345 17.4598H8.2611C8.46306 17.4598 8.62506 17.6218 8.62506 17.8234C8.62506 18.0253 8.46306 18.1873 8.26146 18.1873H6.9345C6.32214 18.1873 5.81238 17.6779 5.81238 17.0656L5.81274 17.0652ZM6.93486 5.81268H8.2611C8.46306 5.81268 8.62506 5.97468 8.62506 6.17628C8.62506 6.37824 8.46306 6.54024 8.26146 6.54024H6.9345C6.7257 6.54024 6.5403 6.72564 6.5403 6.93444V8.26104C6.5403 8.463 6.3783 8.625 6.1767 8.625C5.97438 8.625 5.81274 8.463 5.81274 8.2614V6.93444C5.81274 6.32208 6.32214 5.81232 6.9345 5.81232L6.93486 5.81268ZM17.0653 18.1877H15.739C15.5371 18.1877 15.3751 18.0257 15.3751 17.8237C15.3751 17.6218 15.5371 17.4598 15.7387 17.4598H17.0656C17.2744 17.4598 17.4598 17.2744 17.4598 17.0656V15.739C17.4598 15.537 17.6218 15.375 17.8234 15.375C18.0254 15.375 18.1874 15.537 18.1874 15.7386V17.0656C18.1874 17.6779 17.678 18.1877 17.0656 18.1877H17.0653Z" fill="white"/>
<path fill-rule="evenodd" clip-rule="evenodd" d="M6.375 11.8596C6.375 11.6263 6.564 11.4377 6.79692 11.4377H17.2031C17.3128 11.4409 17.417 11.4867 17.4934 11.5655C17.5699 11.6442 17.6127 11.7497 17.6127 11.8594C17.6127 11.9692 17.5699 12.0746 17.4934 12.1534C17.417 12.2321 17.3128 12.278 17.2031 12.2812H6.79692C6.68502 12.2812 6.5777 12.2367 6.49858 12.1576C6.41945 12.0785 6.375 11.9711 6.375 11.8592V11.8596Z" fill="white"/>
<path fill-rule="evenodd" clip-rule="evenodd" d="M5.98083 11.8592C5.98083 11.6429 6.06678 11.4354 6.21977 11.2824C6.37275 11.1294 6.58024 11.0435 6.79659 11.0435H17.2031C17.4195 11.0435 17.627 11.1294 17.7799 11.2824C17.9329 11.4354 18.0189 11.6429 18.0189 11.8592C18.0189 12.0756 17.9329 12.2831 17.7799 12.4361C17.627 12.5891 17.4195 12.675 17.2031 12.675H6.79659C6.5803 12.6749 6.37291 12.5889 6.22 12.4359C6.06709 12.283 5.9812 12.0755 5.9812 11.8592H5.98083ZM6.79659 11.4373C6.68469 11.4373 6.57738 11.4818 6.49825 11.5609C6.41913 11.64 6.37467 11.7473 6.37467 11.8592C6.37467 11.9711 6.41913 12.0785 6.49825 12.1576C6.57738 12.2367 6.68469 12.2812 6.79659 12.2812H17.2031C17.315 12.2812 17.4223 12.2367 17.5015 12.1576C17.5806 12.0785 17.625 11.9711 17.625 11.8592C17.625 11.7473 17.5806 11.64 17.5015 11.5609C17.4223 11.4818 17.315 11.4373 17.2031 11.4373H6.79659Z" fill="#EE6C4D"/>
<path fill-rule="evenodd" clip-rule="evenodd" d="M9.91882 13.2939C9.91882 13.1387 10.0448 13.0127 10.2 13.0127H13.9566C14.0312 13.0127 14.1028 13.0423 14.1555 13.0951C14.2083 13.1479 14.2379 13.2194 14.2379 13.294C14.2379 13.3687 14.2083 13.4402 14.1555 13.493C14.1028 13.5457 14.0312 13.5754 13.9566 13.5754H10.2C10.163 13.5754 10.1264 13.5681 10.0923 13.5539C10.0582 13.5398 10.0272 13.519 10.001 13.4929C9.97493 13.4668 9.95423 13.4357 9.94012 13.4016C9.92601 13.3674 9.91878 13.3308 9.91882 13.2939ZM9.91882 14.5459C9.91882 14.3908 10.0448 14.2648 10.2 14.2648H13.9566C14.0312 14.2648 14.1027 14.2944 14.1554 14.3471C14.2081 14.3999 14.2377 14.4714 14.2377 14.5459C14.2377 14.6205 14.2081 14.692 14.1554 14.7447C14.1027 14.7975 14.0312 14.8271 13.9566 14.8271H10.2C10.1255 14.8271 10.054 14.7975 10.0013 14.7449C9.94858 14.6922 9.91892 14.6208 9.91882 14.5463V14.5459Z" fill="white"/>
</g>
<defs>
<clipPath id="clip0_59_1373">
<rect width="18" height="18" fill="white" transform="translate(3 3)"/>
</clipPath>
</defs>
</svg>
