<svg width="48px" height="48px" viewBox="0 0 48 48" version="1.1" xmlns="http://www.w3.org/2000/svg">
    <g stroke="none" strokeWidth="1" fill="none" fillRule="evenodd">
    <g transform="translate(-707.000000, -294.000000)" fillRule="nonzero">
        <g transform="translate(707.000000, 294.000000)">
        <rect id="Rectangle" fill="#FE4F62" x="0" y="46" width="9" height="2"></rect>
        <rect id="Rectangle-Copy-5" fill="#FE4F62" x="13" y="46" width="9" height="2"></rect>
        <rect id="Rectangle-Copy-6" fill="#FE4F62" x="26" y="46" width="9" height="2"></rect>
        <rect id="Rectangle-Copy-7" fill="#FE4F62" x="39" y="46" width="9" height="2"></rect>
        <path d="M40.6626536,14.4 L31.4,14.4 L31.4,32.6 L44.1102041,32.6 L44.1102041,17.7963194 L40.6626536,14.4 Z M40.6626536,12 C41.2929501,12 41.8979484,12.2479497 42.346959,12.690288 L46.5102041,16.7916667 L46.5102041,32.6 C46.5102041,33.9254834 45.4356875,35 44.1102041,35 L31.4,35 C30.0745166,35 29,33.9254834 29,32.6 L29,14.4 C29,13.0745166 30.0745166,12 31.4,12 L40.6626536,12 Z M45.1882086,17.4722222 C45.5463797,17.4722222 45.8367347,17.7582625 45.8367347,18.1111111 C45.8367347,18.4639597 45.5463797,18.75 45.1882086,18.75 L40.6485261,18.75 C40.290355,18.75 40,18.4639597 40,18.1111111 L40,13.6388889 C40,13.2860403 40.290355,13 40.6485261,13 C41.0066971,13 41.2970522,13.2860403 41.2970522,13.6388889 L45.1882086,17.4722222 Z" id="Rectangle-8" fill="#FE4F62"></path>
        <path d="M11.6626536,14.4 L2.4,14.4 L2.4,32.6 L15.1102041,32.6 L15.1102041,17.7963194 L11.6626536,14.4 Z M11.6626536,12 C12.2929501,12 12.8979484,12.2479497 13.346959,12.690288 L17.5102041,16.7916667 L17.5102041,32.6 C17.5102041,33.9254834 16.4356875,35 15.1102041,35 L2.4,35 C1.0745166,35 5.68434189e-13,33.9254834 5.68434189e-13,32.6 L0,14.4 C0,13.0745166 1.0745166,12 2.4,12 L11.6626536,12 Z M16.1882086,17.4722222 C16.5463797,17.4722222 16.8367347,17.7582625 16.8367347,18.1111111 C16.8367347,18.4639597 16.5463797,18.75 16.1882086,18.75 L11.6485261,18.75 C11.290355,18.75 11,18.4639597 11,18.1111111 L11,13.6388889 C11,13.2860403 11.290355,13 11.6485261,13 C12.0066971,13 12.2970522,13.2860403 12.2970522,13.6388889 L16.1882086,17.4722222 Z" id="Rectangle-8-Copy-2" fill="#FE4F62"></path>
        <rect id="Rectangle-12" fill="#FE4F62" x="46" y="43" width="2" height="5"></rect>
        <rect id="Rectangle-12-Copy" fill="#FE4F62" x="0" y="43" width="2" height="5"></rect>
        <path d="M21.5,25 C20.6715729,25 20,24.3284271 20,23.5 C20,22.6715729 20.6715729,22 21.5,22 L25.5,22 C26.3284271,22 27,22.6715729 27,23.5 C27,24.3284271 26.3284271,25 25.5,25 L21.5,25 Z" id="Line" fill="#FE4F62"></path>
        <polygon id="Rectangle-Copy-8" fill="#FE4F62" points="0 2 0 0 9 0 9 2"></polygon>
        <polygon id="Rectangle-Copy-9" fill="#FE4F62" points="13 2 13 0 22 0 22 2"></polygon>
        <polygon id="Rectangle-Copy-10" fill="#FE4F62" points="26 2 26 0 35 0 35 2"></polygon>
        <polygon id="Rectangle-Copy-11" fill="#FE4F62" points="39 2 39 0 48 0 48 2"></polygon>
        <polygon id="Rectangle-12-Copy-8" fill="#FE4F62" points="46 5 46 0 48 0 48 5"></polygon>
        <polygon id="Rectangle-12-Copy-9" fill="#FE4F62" points="0 5 0 0 2 0 2 5"></polygon>
        </g>
    </g>
    </g>
</svg>