<svg width="24" height="24" viewBox="0 0 24 24" fill="none" xmlns="http://www.w3.org/2000/svg">
<g clip-path="url(#clip0_59_1368)">
<path fill-rule="evenodd" clip-rule="evenodd" d="M5.88432 3H18.1153C19.1183 3 19.4821 3.1044 19.8487 3.3006C20.2154 3.4968 20.5032 3.78444 20.6992 4.1511C20.8952 4.51776 20.9998 4.88154 20.9998 5.8845V18.1155C20.9998 19.1185 20.8954 19.4822 20.6992 19.8489C20.503 20.2156 20.2154 20.5034 19.8487 20.6994C19.4821 20.8954 19.1183 21 18.1153 21H5.88432C4.88136 21 4.51758 20.8956 4.15092 20.6994C3.78426 20.5032 3.4968 20.2156 3.3006 19.8489C3.1044 19.4822 3 19.1186 3 18.1157V5.88468C3 4.88172 3.1044 4.51794 3.3006 4.15128C3.4968 3.78462 3.78444 3.4968 4.1511 3.3006C4.51776 3.1044 4.88136 3 5.88432 3Z" fill="#4A7AAB"/>
<path d="M15.7093 10.9481H10.2463L10.2522 9.05772C10.2846 8.65596 10.5001 8.25024 10.8282 7.97232C11.1699 7.68378 11.5648 7.54572 12.0256 7.5504C12.0803 7.55091 12.1349 7.5535 12.1894 7.55814C13.0149 7.62474 13.7014 8.29398 13.7518 9.08202C13.7572 9.15942 13.7543 9.22602 13.7509 9.3765L13.7419 9.84198C13.741 9.90438 13.7524 9.96636 13.7754 10.0244C13.7985 10.0824 13.8327 10.1352 13.8762 10.18C13.9197 10.2248 13.9716 10.2605 14.0289 10.2852C14.0862 10.3099 14.1479 10.3231 14.2103 10.324C14.477 10.3219 14.6885 10.1179 14.6923 9.85566L14.7009 9.39846C14.7051 9.2199 14.7071 9.1299 14.7002 9.02046C14.6198 7.77252 13.55 6.71376 12.2654 6.60846C12.188 6.60234 12.1109 6.59874 12.035 6.59766H12.002C11.3234 6.59766 10.7222 6.8151 10.2141 7.2444C9.69694 7.68216 9.35674 8.3307 9.30454 8.97834C9.30094 9.01884 9.29122 9.14484 9.29554 10.9457H8.29078C8.15218 10.9457 8.04004 11.0582 8.04004 11.1965V16.511C8.04004 16.6496 8.15254 16.7617 8.29078 16.7617H15.7093C15.8479 16.7617 15.96 16.6492 15.96 16.511V11.199C15.96 11.0604 15.8479 10.9483 15.7093 10.9483V10.9481ZM12.6147 15.2508H11.3853L11.5731 13.7266C11.392 13.5993 11.2743 13.3936 11.2743 13.1614C11.2743 12.7753 11.5992 12.4622 12.0002 12.4622C12.4013 12.4622 12.7262 12.7754 12.7262 13.1614C12.7262 13.3954 12.6086 13.5995 12.4274 13.7266L12.6149 15.2508H12.6147Z" fill="white"/>
</g>
<defs>
<clipPath id="clip0_59_1368">
<rect width="18" height="18" fill="white" transform="translate(3 3)"/>
</clipPath>
</defs>
</svg>
